<?xml version="1.0" encoding="utf-8" standalone="no"?>
<!DOCTYPE svg PUBLIC "-//W3C//DTD SVG 1.1//EN"
  "http://www.w3.org/Graphics/SVG/1.1/DTD/svg11.dtd">
<svg xmlns:xlink="http://www.w3.org/1999/xlink" width="360pt" height="270pt" viewBox="0 0 360 270" xmlns="http://www.w3.org/2000/svg" version="1.1">
 <metadata>
  <rdf:RDF xmlns:dc="http://purl.org/dc/elements/1.1/" xmlns:cc="http://creativecommons.org/ns#" xmlns:rdf="http://www.w3.org/1999/02/22-rdf-syntax-ns#">
   <cc:Work>
    <dc:type rdf:resource="http://purl.org/dc/dcmitype/StillImage"/>
    <dc:date>2026-01-03T02:20:52.163826</dc:date>
    <dc:format>image/svg+xml</dc:format>
    <dc:creator>
     <cc:Agent>
      <dc:title>Matplotlib v3.10.8, https://matplotlib.org/</dc:title>
     </cc:Agent>
    </dc:creator>
   </cc:Work>
  </rdf:RDF>
 </metadata>
 <defs>
  <style type="text/css">*{stroke-linejoin: round; stroke-linecap: butt}</style>
 </defs>
 <g id="figure_1">
  <g id="patch_1">
   <path d="M 0 270 
L 360 270 
L 360 0 
L 0 0 
z
" style="fill: #ffffff"/>
  </g>
  <g id="axes_1">
   <g id="patch_2">
    <path d="M 47.81 227.32 
L 349.2 227.32 
L 349.2 10.8 
L 47.81 10.8 
z
" style="fill: #ffffff"/>
   </g>
   <g id="matplotlib.axis_1">
    <g id="xtick_1">
     <g id="line2d_1">
      <path d="M 61.509545 227.32 
L 61.509545 10.8 
" clip-path="url(#pe6a6981ed7)" style="fill: none; stroke-dasharray: 2.96,1.28; stroke-dashoffset: 0; stroke: #b0b0b0; stroke-opacity: 0.5; stroke-width: 0.8"/>
     </g>
     <g id="line2d_2">
      <defs>
       <path id="m88bb8ce49e" d="M 0 0 
L 0 3.5 
" style="stroke: #000000; stroke-width: 0.8"/>
      </defs>
      <g>
       <use xlink:href="#m88bb8ce49e" x="61.509545" y="227.32" style="stroke: #000000; stroke-width: 0.8"/>
      </g>
     </g>
     <g id="text_1">
      <!-- 0 -->
      <g transform="translate(58.328295 241.918438) scale(0.1 -0.1)">
       <defs>
        <path id="DejaVuSans-30" d="M 2034 4250 
Q 1547 4250 1301 3770 
Q 1056 3291 1056 2328 
Q 1056 1369 1301 889 
Q 1547 409 2034 409 
Q 2525 409 2770 889 
Q 3016 1369 3016 2328 
Q 3016 3291 2770 3770 
Q 2525 4250 2034 4250 
z
M 2034 4750 
Q 2819 4750 3233 4129 
Q 3647 3509 3647 2328 
Q 3647 1150 3233 529 
Q 2819 -91 2034 -91 
Q 1250 -91 836 529 
Q 422 1150 422 2328 
Q 422 3509 836 4129 
Q 1250 4750 2034 4750 
z
" transform="scale(0.015625)"/>
       </defs>
       <use xlink:href="#DejaVuSans-30"/>
      </g>
     </g>
    </g>
    <g id="xtick_2">
     <g id="line2d_3">
      <path d="M 122.396414 227.32 
L 122.396414 10.8 
" clip-path="url(#pe6a6981ed7)" style="fill: none; stroke-dasharray: 2.96,1.28; stroke-dashoffset: 0; stroke: #b0b0b0; stroke-opacity: 0.5; stroke-width: 0.8"/>
     </g>
     <g id="line2d_4">
      <g>
       <use xlink:href="#m88bb8ce49e" x="122.396414" y="227.32" style="stroke: #000000; stroke-width: 0.8"/>
      </g>
     </g>
     <g id="text_2">
      <!-- 20 -->
      <g transform="translate(116.033914 241.918438) scale(0.1 -0.1)">
       <defs>
        <path id="DejaVuSans-32" d="M 1228 531 
L 3431 531 
L 3431 0 
L 469 0 
L 469 531 
Q 828 903 1448 1529 
Q 2069 2156 2228 2338 
Q 2531 2678 2651 2914 
Q 2772 3150 2772 3378 
Q 2772 3750 2511 3984 
Q 2250 4219 1831 4219 
Q 1534 4219 1204 4116 
Q 875 4013 500 3803 
L 500 4441 
Q 881 4594 1212 4672 
Q 1544 4750 1819 4750 
Q 2544 4750 2975 4387 
Q 3406 4025 3406 3419 
Q 3406 3131 3298 2873 
Q 3191 2616 2906 2266 
Q 2828 2175 2409 1742 
Q 1991 1309 1228 531 
z
" transform="scale(0.015625)"/>
       </defs>
       <use xlink:href="#DejaVuSans-32"/>
       <use xlink:href="#DejaVuSans-30" transform="translate(63.623047 0)"/>
      </g>
     </g>
    </g>
    <g id="xtick_3">
     <g id="line2d_5">
      <path d="M 183.283283 227.32 
L 183.283283 10.8 
" clip-path="url(#pe6a6981ed7)" style="fill: none; stroke-dasharray: 2.96,1.28; stroke-dashoffset: 0; stroke: #b0b0b0; stroke-opacity: 0.5; stroke-width: 0.8"/>
     </g>
     <g id="line2d_6">
      <g>
       <use xlink:href="#m88bb8ce49e" x="183.283283" y="227.32" style="stroke: #000000; stroke-width: 0.8"/>
      </g>
     </g>
     <g id="text_3">
      <!-- 40 -->
      <g transform="translate(176.920783 241.918438) scale(0.1 -0.1)">
       <defs>
        <path id="DejaVuSans-34" d="M 2419 4116 
L 825 1625 
L 2419 1625 
L 2419 4116 
z
M 2253 4666 
L 3047 4666 
L 3047 1625 
L 3713 1625 
L 3713 1100 
L 3047 1100 
L 3047 0 
L 2419 0 
L 2419 1100 
L 313 1100 
L 313 1709 
L 2253 4666 
z
" transform="scale(0.015625)"/>
       </defs>
       <use xlink:href="#DejaVuSans-34"/>
       <use xlink:href="#DejaVuSans-30" transform="translate(63.623047 0)"/>
      </g>
     </g>
    </g>
    <g id="xtick_4">
     <g id="line2d_7">
      <path d="M 244.170152 227.32 
L 244.170152 10.8 
" clip-path="url(#pe6a6981ed7)" style="fill: none; stroke-dasharray: 2.96,1.28; stroke-dashoffset: 0; stroke: #b0b0b0; stroke-opacity: 0.5; stroke-width: 0.8"/>
     </g>
     <g id="line2d_8">
      <g>
       <use xlink:href="#m88bb8ce49e" x="244.170152" y="227.32" style="stroke: #000000; stroke-width: 0.8"/>
      </g>
     </g>
     <g id="text_4">
      <!-- 60 -->
      <g transform="translate(237.807652 241.918438) scale(0.1 -0.1)">
       <defs>
        <path id="DejaVuSans-36" d="M 2113 2584 
Q 1688 2584 1439 2293 
Q 1191 2003 1191 1497 
Q 1191 994 1439 701 
Q 1688 409 2113 409 
Q 2538 409 2786 701 
Q 3034 994 3034 1497 
Q 3034 2003 2786 2293 
Q 2538 2584 2113 2584 
z
M 3366 4563 
L 3366 3988 
Q 3128 4100 2886 4159 
Q 2644 4219 2406 4219 
Q 1781 4219 1451 3797 
Q 1122 3375 1075 2522 
Q 1259 2794 1537 2939 
Q 1816 3084 2150 3084 
Q 2853 3084 3261 2657 
Q 3669 2231 3669 1497 
Q 3669 778 3244 343 
Q 2819 -91 2113 -91 
Q 1303 -91 875 529 
Q 447 1150 447 2328 
Q 447 3434 972 4092 
Q 1497 4750 2381 4750 
Q 2619 4750 2861 4703 
Q 3103 4656 3366 4563 
z
" transform="scale(0.015625)"/>
       </defs>
       <use xlink:href="#DejaVuSans-36"/>
       <use xlink:href="#DejaVuSans-30" transform="translate(63.623047 0)"/>
      </g>
     </g>
    </g>
    <g id="xtick_5">
     <g id="line2d_9">
      <path d="M 305.05702 227.32 
L 305.05702 10.8 
" clip-path="url(#pe6a6981ed7)" style="fill: none; stroke-dasharray: 2.96,1.28; stroke-dashoffset: 0; stroke: #b0b0b0; stroke-opacity: 0.5; stroke-width: 0.8"/>
     </g>
     <g id="line2d_10">
      <g>
       <use xlink:href="#m88bb8ce49e" x="305.05702" y="227.32" style="stroke: #000000; stroke-width: 0.8"/>
      </g>
     </g>
     <g id="text_5">
      <!-- 80 -->
      <g transform="translate(298.69452 241.918438) scale(0.1 -0.1)">
       <defs>
        <path id="DejaVuSans-38" d="M 2034 2216 
Q 1584 2216 1326 1975 
Q 1069 1734 1069 1313 
Q 1069 891 1326 650 
Q 1584 409 2034 409 
Q 2484 409 2743 651 
Q 3003 894 3003 1313 
Q 3003 1734 2745 1975 
Q 2488 2216 2034 2216 
z
M 1403 2484 
Q 997 2584 770 2862 
Q 544 3141 544 3541 
Q 544 4100 942 4425 
Q 1341 4750 2034 4750 
Q 2731 4750 3128 4425 
Q 3525 4100 3525 3541 
Q 3525 3141 3298 2862 
Q 3072 2584 2669 2484 
Q 3125 2378 3379 2068 
Q 3634 1759 3634 1313 
Q 3634 634 3220 271 
Q 2806 -91 2034 -91 
Q 1263 -91 848 271 
Q 434 634 434 1313 
Q 434 1759 690 2068 
Q 947 2378 1403 2484 
z
M 1172 3481 
Q 1172 3119 1398 2916 
Q 1625 2713 2034 2713 
Q 2441 2713 2670 2916 
Q 2900 3119 2900 3481 
Q 2900 3844 2670 4047 
Q 2441 4250 2034 4250 
Q 1625 4250 1398 4047 
Q 1172 3844 1172 3481 
z
" transform="scale(0.015625)"/>
       </defs>
       <use xlink:href="#DejaVuSans-38"/>
       <use xlink:href="#DejaVuSans-30" transform="translate(63.623047 0)"/>
      </g>
     </g>
    </g>
    <g id="text_6">
     <!-- $\eta$ -->
     <g transform="translate(195.305 255.57625) scale(0.1 -0.1)">
      <defs>
       <path id="DejaVuSans-Oblique-3b7" d="M 3703 2113 
L 3034 -1331 
L 2459 -1331 
L 3125 2094 
Q 3222 2591 3075 2838 
Q 2931 3084 2544 3084 
Q 2078 3084 1750 2788 
Q 1425 2491 1325 1978 
L 941 0 
L 363 0 
L 1044 3500 
L 1622 3500 
L 1516 2956 
Q 1781 3272 2094 3428 
Q 2403 3584 2769 3584 
Q 3372 3584 3609 3213 
Q 3844 2838 3703 2113 
z
" transform="scale(0.015625)"/>
      </defs>
      <use xlink:href="#DejaVuSans-Oblique-3b7"/>
     </g>
    </g>
   </g>
   <g id="matplotlib.axis_2">
    <g id="ytick_1">
     <g id="line2d_11">
      <path d="M 47.81 195.674717 
L 349.2 195.674717 
" clip-path="url(#pe6a6981ed7)" style="fill: none; stroke-dasharray: 2.96,1.28; stroke-dashoffset: 0; stroke: #b0b0b0; stroke-opacity: 0.5; stroke-width: 0.8"/>
     </g>
     <g id="line2d_12">
      <defs>
       <path id="m930c78953a" d="M 0 0 
L -3.5 0 
" style="stroke: #000000; stroke-width: 0.8"/>
      </defs>
      <g>
       <use xlink:href="#m930c78953a" x="47.81" y="195.674717" style="stroke: #000000; stroke-width: 0.8"/>
      </g>
     </g>
     <g id="text_7">
      <!-- 0.5 -->
      <g transform="translate(24.906875 199.473935) scale(0.1 -0.1)">
       <defs>
        <path id="DejaVuSans-2e" d="M 684 794 
L 1344 794 
L 1344 0 
L 684 0 
L 684 794 
z
" transform="scale(0.015625)"/>
        <path id="DejaVuSans-35" d="M 691 4666 
L 3169 4666 
L 3169 4134 
L 1269 4134 
L 1269 2991 
Q 1406 3038 1543 3061 
Q 1681 3084 1819 3084 
Q 2600 3084 3056 2656 
Q 3513 2228 3513 1497 
Q 3513 744 3044 326 
Q 2575 -91 1722 -91 
Q 1428 -91 1123 -41 
Q 819 9 494 109 
L 494 744 
Q 775 591 1075 516 
Q 1375 441 1709 441 
Q 2250 441 2565 725 
Q 2881 1009 2881 1497 
Q 2881 1984 2565 2268 
Q 2250 2553 1709 2553 
Q 1456 2553 1204 2497 
Q 953 2441 691 2322 
L 691 4666 
z
" transform="scale(0.015625)"/>
       </defs>
       <use xlink:href="#DejaVuSans-30"/>
       <use xlink:href="#DejaVuSans-2e" transform="translate(63.623047 0)"/>
       <use xlink:href="#DejaVuSans-35" transform="translate(95.410156 0)"/>
      </g>
     </g>
    </g>
    <g id="ytick_2">
     <g id="line2d_13">
      <path d="M 47.81 160.668137 
L 349.2 160.668137 
" clip-path="url(#pe6a6981ed7)" style="fill: none; stroke-dasharray: 2.96,1.28; stroke-dashoffset: 0; stroke: #b0b0b0; stroke-opacity: 0.5; stroke-width: 0.8"/>
     </g>
     <g id="line2d_14">
      <g>
       <use xlink:href="#m930c78953a" x="47.81" y="160.668137" style="stroke: #000000; stroke-width: 0.8"/>
      </g>
     </g>
     <g id="text_8">
      <!-- 0.6 -->
      <g transform="translate(24.906875 164.467356) scale(0.1 -0.1)">
       <use xlink:href="#DejaVuSans-30"/>
       <use xlink:href="#DejaVuSans-2e" transform="translate(63.623047 0)"/>
       <use xlink:href="#DejaVuSans-36" transform="translate(95.410156 0)"/>
      </g>
     </g>
    </g>
    <g id="ytick_3">
     <g id="line2d_15">
      <path d="M 47.81 125.661557 
L 349.2 125.661557 
" clip-path="url(#pe6a6981ed7)" style="fill: none; stroke-dasharray: 2.96,1.28; stroke-dashoffset: 0; stroke: #b0b0b0; stroke-opacity: 0.5; stroke-width: 0.8"/>
     </g>
     <g id="line2d_16">
      <g>
       <use xlink:href="#m930c78953a" x="47.81" y="125.661557" style="stroke: #000000; stroke-width: 0.8"/>
      </g>
     </g>
     <g id="text_9">
      <!-- 0.7 -->
      <g transform="translate(24.906875 129.460776) scale(0.1 -0.1)">
       <defs>
        <path id="DejaVuSans-37" d="M 525 4666 
L 3525 4666 
L 3525 4397 
L 1831 0 
L 1172 0 
L 2766 4134 
L 525 4134 
L 525 4666 
z
" transform="scale(0.015625)"/>
       </defs>
       <use xlink:href="#DejaVuSans-30"/>
       <use xlink:href="#DejaVuSans-2e" transform="translate(63.623047 0)"/>
       <use xlink:href="#DejaVuSans-37" transform="translate(95.410156 0)"/>
      </g>
     </g>
    </g>
    <g id="ytick_4">
     <g id="line2d_17">
      <path d="M 47.81 90.654978 
L 349.2 90.654978 
" clip-path="url(#pe6a6981ed7)" style="fill: none; stroke-dasharray: 2.96,1.28; stroke-dashoffset: 0; stroke: #b0b0b0; stroke-opacity: 0.5; stroke-width: 0.8"/>
     </g>
     <g id="line2d_18">
      <g>
       <use xlink:href="#m930c78953a" x="47.81" y="90.654978" style="stroke: #000000; stroke-width: 0.8"/>
      </g>
     </g>
     <g id="text_10">
      <!-- 0.8 -->
      <g transform="translate(24.906875 94.454196) scale(0.1 -0.1)">
       <use xlink:href="#DejaVuSans-30"/>
       <use xlink:href="#DejaVuSans-2e" transform="translate(63.623047 0)"/>
       <use xlink:href="#DejaVuSans-38" transform="translate(95.410156 0)"/>
      </g>
     </g>
    </g>
    <g id="ytick_5">
     <g id="line2d_19">
      <path d="M 47.81 55.648398 
L 349.2 55.648398 
" clip-path="url(#pe6a6981ed7)" style="fill: none; stroke-dasharray: 2.96,1.28; stroke-dashoffset: 0; stroke: #b0b0b0; stroke-opacity: 0.5; stroke-width: 0.8"/>
     </g>
     <g id="line2d_20">
      <g>
       <use xlink:href="#m930c78953a" x="47.81" y="55.648398" style="stroke: #000000; stroke-width: 0.8"/>
      </g>
     </g>
     <g id="text_11">
      <!-- 0.9 -->
      <g transform="translate(24.906875 59.447617) scale(0.1 -0.1)">
       <defs>
        <path id="DejaVuSans-39" d="M 703 97 
L 703 672 
Q 941 559 1184 500 
Q 1428 441 1663 441 
Q 2288 441 2617 861 
Q 2947 1281 2994 2138 
Q 2813 1869 2534 1725 
Q 2256 1581 1919 1581 
Q 1219 1581 811 2004 
Q 403 2428 403 3163 
Q 403 3881 828 4315 
Q 1253 4750 1959 4750 
Q 2769 4750 3195 4129 
Q 3622 3509 3622 2328 
Q 3622 1225 3098 567 
Q 2575 -91 1691 -91 
Q 1453 -91 1209 -44 
Q 966 3 703 97 
z
M 1959 2075 
Q 2384 2075 2632 2365 
Q 2881 2656 2881 3163 
Q 2881 3666 2632 3958 
Q 2384 4250 1959 4250 
Q 1534 4250 1286 3958 
Q 1038 3666 1038 3163 
Q 1038 2656 1286 2365 
Q 1534 2075 1959 2075 
z
" transform="scale(0.015625)"/>
       </defs>
       <use xlink:href="#DejaVuSans-30"/>
       <use xlink:href="#DejaVuSans-2e" transform="translate(63.623047 0)"/>
       <use xlink:href="#DejaVuSans-39" transform="translate(95.410156 0)"/>
      </g>
     </g>
    </g>
    <g id="ytick_6">
     <g id="line2d_21">
      <path d="M 47.81 20.641818 
L 349.2 20.641818 
" clip-path="url(#pe6a6981ed7)" style="fill: none; stroke-dasharray: 2.96,1.28; stroke-dashoffset: 0; stroke: #b0b0b0; stroke-opacity: 0.5; stroke-width: 0.8"/>
     </g>
     <g id="line2d_22">
      <g>
       <use xlink:href="#m930c78953a" x="47.81" y="20.641818" style="stroke: #000000; stroke-width: 0.8"/>
      </g>
     </g>
     <g id="text_12">
      <!-- 1.0 -->
      <g transform="translate(24.906875 24.441037) scale(0.1 -0.1)">
       <defs>
        <path id="DejaVuSans-31" d="M 794 531 
L 1825 531 
L 1825 4091 
L 703 3866 
L 703 4441 
L 1819 4666 
L 2450 4666 
L 2450 531 
L 3481 531 
L 3481 0 
L 794 0 
L 794 531 
z
" transform="scale(0.015625)"/>
       </defs>
       <use xlink:href="#DejaVuSans-31"/>
       <use xlink:href="#DejaVuSans-2e" transform="translate(63.623047 0)"/>
       <use xlink:href="#DejaVuSans-30" transform="translate(95.410156 0)"/>
      </g>
     </g>
    </g>
    <g id="text_13">
     <!-- Eve Holevo information -->
     <g transform="translate(18.827187 177.594375) rotate(-90) scale(0.1 -0.1)">
      <defs>
       <path id="DejaVuSans-45" d="M 628 4666 
L 3578 4666 
L 3578 4134 
L 1259 4134 
L 1259 2753 
L 3481 2753 
L 3481 2222 
L 1259 2222 
L 1259 531 
L 3634 531 
L 3634 0 
L 628 0 
L 628 4666 
z
" transform="scale(0.015625)"/>
       <path id="DejaVuSans-76" d="M 191 3500 
L 800 3500 
L 1894 563 
L 2988 3500 
L 3597 3500 
L 2284 0 
L 1503 0 
L 191 3500 
z
" transform="scale(0.015625)"/>
       <path id="DejaVuSans-65" d="M 3597 1894 
L 3597 1613 
L 953 1613 
Q 991 1019 1311 708 
Q 1631 397 2203 397 
Q 2534 397 2845 478 
Q 3156 559 3463 722 
L 3463 178 
Q 3153 47 2828 -22 
Q 2503 -91 2169 -91 
Q 1331 -91 842 396 
Q 353 884 353 1716 
Q 353 2575 817 3079 
Q 1281 3584 2069 3584 
Q 2775 3584 3186 3129 
Q 3597 2675 3597 1894 
z
M 3022 2063 
Q 3016 2534 2758 2815 
Q 2500 3097 2075 3097 
Q 1594 3097 1305 2825 
Q 1016 2553 972 2059 
L 3022 2063 
z
" transform="scale(0.015625)"/>
       <path id="DejaVuSans-20" transform="scale(0.015625)"/>
       <path id="DejaVuSans-48" d="M 628 4666 
L 1259 4666 
L 1259 2753 
L 3553 2753 
L 3553 4666 
L 4184 4666 
L 4184 0 
L 3553 0 
L 3553 2222 
L 1259 2222 
L 1259 0 
L 628 0 
L 628 4666 
z
" transform="scale(0.015625)"/>
       <path id="DejaVuSans-6f" d="M 1959 3097 
Q 1497 3097 1228 2736 
Q 959 2375 959 1747 
Q 959 1119 1226 758 
Q 1494 397 1959 397 
Q 2419 397 2687 759 
Q 2956 1122 2956 1747 
Q 2956 2369 2687 2733 
Q 2419 3097 1959 3097 
z
M 1959 3584 
Q 2709 3584 3137 3096 
Q 3566 2609 3566 1747 
Q 3566 888 3137 398 
Q 2709 -91 1959 -91 
Q 1206 -91 779 398 
Q 353 888 353 1747 
Q 353 2609 779 3096 
Q 1206 3584 1959 3584 
z
" transform="scale(0.015625)"/>
       <path id="DejaVuSans-6c" d="M 603 4863 
L 1178 4863 
L 1178 0 
L 603 0 
L 603 4863 
z
" transform="scale(0.015625)"/>
       <path id="DejaVuSans-69" d="M 603 3500 
L 1178 3500 
L 1178 0 
L 603 0 
L 603 3500 
z
M 603 4863 
L 1178 4863 
L 1178 4134 
L 603 4134 
L 603 4863 
z
" transform="scale(0.015625)"/>
       <path id="DejaVuSans-6e" d="M 3513 2113 
L 3513 0 
L 2938 0 
L 2938 2094 
Q 2938 2591 2744 2837 
Q 2550 3084 2163 3084 
Q 1697 3084 1428 2787 
Q 1159 2491 1159 1978 
L 1159 0 
L 581 0 
L 581 3500 
L 1159 3500 
L 1159 2956 
Q 1366 3272 1645 3428 
Q 1925 3584 2291 3584 
Q 2894 3584 3203 3211 
Q 3513 2838 3513 2113 
z
" transform="scale(0.015625)"/>
       <path id="DejaVuSans-66" d="M 2375 4863 
L 2375 4384 
L 1825 4384 
Q 1516 4384 1395 4259 
Q 1275 4134 1275 3809 
L 1275 3500 
L 2222 3500 
L 2222 3053 
L 1275 3053 
L 1275 0 
L 697 0 
L 697 3053 
L 147 3053 
L 147 3500 
L 697 3500 
L 697 3744 
Q 697 4328 969 4595 
Q 1241 4863 1831 4863 
L 2375 4863 
z
" transform="scale(0.015625)"/>
       <path id="DejaVuSans-72" d="M 2631 2963 
Q 2534 3019 2420 3045 
Q 2306 3072 2169 3072 
Q 1681 3072 1420 2755 
Q 1159 2438 1159 1844 
L 1159 0 
L 581 0 
L 581 3500 
L 1159 3500 
L 1159 2956 
Q 1341 3275 1631 3429 
Q 1922 3584 2338 3584 
Q 2397 3584 2469 3576 
Q 2541 3569 2628 3553 
L 2631 2963 
z
" transform="scale(0.015625)"/>
       <path id="DejaVuSans-6d" d="M 3328 2828 
Q 3544 3216 3844 3400 
Q 4144 3584 4550 3584 
Q 5097 3584 5394 3201 
Q 5691 2819 5691 2113 
L 5691 0 
L 5113 0 
L 5113 2094 
Q 5113 2597 4934 2840 
Q 4756 3084 4391 3084 
Q 3944 3084 3684 2787 
Q 3425 2491 3425 1978 
L 3425 0 
L 2847 0 
L 2847 2094 
Q 2847 2600 2669 2842 
Q 2491 3084 2119 3084 
Q 1678 3084 1418 2786 
Q 1159 2488 1159 1978 
L 1159 0 
L 581 0 
L 581 3500 
L 1159 3500 
L 1159 2956 
Q 1356 3278 1631 3431 
Q 1906 3584 2284 3584 
Q 2666 3584 2933 3390 
Q 3200 3197 3328 2828 
z
" transform="scale(0.015625)"/>
       <path id="DejaVuSans-61" d="M 2194 1759 
Q 1497 1759 1228 1600 
Q 959 1441 959 1056 
Q 959 750 1161 570 
Q 1363 391 1709 391 
Q 2188 391 2477 730 
Q 2766 1069 2766 1631 
L 2766 1759 
L 2194 1759 
z
M 3341 1997 
L 3341 0 
L 2766 0 
L 2766 531 
Q 2569 213 2275 61 
Q 1981 -91 1556 -91 
Q 1019 -91 701 211 
Q 384 513 384 1019 
Q 384 1609 779 1909 
Q 1175 2209 1959 2209 
L 2766 2209 
L 2766 2266 
Q 2766 2663 2505 2880 
Q 2244 3097 1772 3097 
Q 1472 3097 1187 3025 
Q 903 2953 641 2809 
L 641 3341 
Q 956 3463 1253 3523 
Q 1550 3584 1831 3584 
Q 2591 3584 2966 3190 
Q 3341 2797 3341 1997 
z
" transform="scale(0.015625)"/>
       <path id="DejaVuSans-74" d="M 1172 4494 
L 1172 3500 
L 2356 3500 
L 2356 3053 
L 1172 3053 
L 1172 1153 
Q 1172 725 1289 603 
Q 1406 481 1766 481 
L 2356 481 
L 2356 0 
L 1766 0 
Q 1100 0 847 248 
Q 594 497 594 1153 
L 594 3053 
L 172 3053 
L 172 3500 
L 594 3500 
L 594 4494 
L 1172 4494 
z
" transform="scale(0.015625)"/>
      </defs>
      <use xlink:href="#DejaVuSans-45"/>
      <use xlink:href="#DejaVuSans-76" transform="translate(63.183594 0)"/>
      <use xlink:href="#DejaVuSans-65" transform="translate(122.363281 0)"/>
      <use xlink:href="#DejaVuSans-20" transform="translate(183.886719 0)"/>
      <use xlink:href="#DejaVuSans-48" transform="translate(215.673828 0)"/>
      <use xlink:href="#DejaVuSans-6f" transform="translate(290.869141 0)"/>
      <use xlink:href="#DejaVuSans-6c" transform="translate(352.050781 0)"/>
      <use xlink:href="#DejaVuSans-65" transform="translate(379.833984 0)"/>
      <use xlink:href="#DejaVuSans-76" transform="translate(441.357422 0)"/>
      <use xlink:href="#DejaVuSans-6f" transform="translate(500.537109 0)"/>
      <use xlink:href="#DejaVuSans-20" transform="translate(561.71875 0)"/>
      <use xlink:href="#DejaVuSans-69" transform="translate(593.505859 0)"/>
      <use xlink:href="#DejaVuSans-6e" transform="translate(621.289062 0)"/>
      <use xlink:href="#DejaVuSans-66" transform="translate(684.667969 0)"/>
      <use xlink:href="#DejaVuSans-6f" transform="translate(719.873047 0)"/>
      <use xlink:href="#DejaVuSans-72" transform="translate(781.054688 0)"/>
      <use xlink:href="#DejaVuSans-6d" transform="translate(820.417969 0)"/>
      <use xlink:href="#DejaVuSans-61" transform="translate(917.830078 0)"/>
      <use xlink:href="#DejaVuSans-74" transform="translate(979.109375 0)"/>
      <use xlink:href="#DejaVuSans-69" transform="translate(1018.318359 0)"/>
      <use xlink:href="#DejaVuSans-6f" transform="translate(1046.101562 0)"/>
      <use xlink:href="#DejaVuSans-6e" transform="translate(1107.283203 0)"/>
     </g>
    </g>
   </g>
   <g id="line2d_23">
    <path d="M 61.509545 20.641818 
L 75.93012 20.641818 
L 90.350694 20.641818 
L 104.771268 20.641818 
L 119.191842 20.70155 
L 133.612416 48.00901 
L 148.03299 119.751684 
L 162.453565 164.770929 
L 176.874139 196.534266 
L 191.294713 171.801469 
L 205.715287 217.478182 
L 220.135861 171.035496 
L 234.556435 170.10137 
L 248.97701 119.873354 
L 263.397584 60.985179 
L 277.818158 21.787069 
L 292.238732 20.641818 
L 306.659306 20.641818 
L 321.07988 20.641818 
L 335.500455 20.641818 
" clip-path="url(#pe6a6981ed7)" style="fill: none; stroke: #ff8c00; stroke-width: 1.5; stroke-linecap: square"/>
    <defs>
     <path id="m7290cb5200" d="M -2 2 
L 2 -2 
M -2 -2 
L 2 2 
" style="stroke: #ff8c00"/>
    </defs>
    <g clip-path="url(#pe6a6981ed7)">
     <use xlink:href="#m7290cb5200" x="61.509545" y="20.641818" style="fill: #ff8c00; stroke: #ff8c00"/>
     <use xlink:href="#m7290cb5200" x="75.93012" y="20.641818" style="fill: #ff8c00; stroke: #ff8c00"/>
     <use xlink:href="#m7290cb5200" x="90.350694" y="20.641818" style="fill: #ff8c00; stroke: #ff8c00"/>
     <use xlink:href="#m7290cb5200" x="104.771268" y="20.641818" style="fill: #ff8c00; stroke: #ff8c00"/>
     <use xlink:href="#m7290cb5200" x="119.191842" y="20.70155" style="fill: #ff8c00; stroke: #ff8c00"/>
     <use xlink:href="#m7290cb5200" x="133.612416" y="48.00901" style="fill: #ff8c00; stroke: #ff8c00"/>
     <use xlink:href="#m7290cb5200" x="148.03299" y="119.751684" style="fill: #ff8c00; stroke: #ff8c00"/>
     <use xlink:href="#m7290cb5200" x="162.453565" y="164.770929" style="fill: #ff8c00; stroke: #ff8c00"/>
     <use xlink:href="#m7290cb5200" x="176.874139" y="196.534266" style="fill: #ff8c00; stroke: #ff8c00"/>
     <use xlink:href="#m7290cb5200" x="191.294713" y="171.801469" style="fill: #ff8c00; stroke: #ff8c00"/>
     <use xlink:href="#m7290cb5200" x="205.715287" y="217.478182" style="fill: #ff8c00; stroke: #ff8c00"/>
     <use xlink:href="#m7290cb5200" x="220.135861" y="171.035496" style="fill: #ff8c00; stroke: #ff8c00"/>
     <use xlink:href="#m7290cb5200" x="234.556435" y="170.10137" style="fill: #ff8c00; stroke: #ff8c00"/>
     <use xlink:href="#m7290cb5200" x="248.97701" y="119.873354" style="fill: #ff8c00; stroke: #ff8c00"/>
     <use xlink:href="#m7290cb5200" x="263.397584" y="60.985179" style="fill: #ff8c00; stroke: #ff8c00"/>
     <use xlink:href="#m7290cb5200" x="277.818158" y="21.787069" style="fill: #ff8c00; stroke: #ff8c00"/>
     <use xlink:href="#m7290cb5200" x="292.238732" y="20.641818" style="fill: #ff8c00; stroke: #ff8c00"/>
     <use xlink:href="#m7290cb5200" x="306.659306" y="20.641818" style="fill: #ff8c00; stroke: #ff8c00"/>
     <use xlink:href="#m7290cb5200" x="321.07988" y="20.641818" style="fill: #ff8c00; stroke: #ff8c00"/>
     <use xlink:href="#m7290cb5200" x="335.500455" y="20.641818" style="fill: #ff8c00; stroke: #ff8c00"/>
    </g>
   </g>
   <g id="line2d_24">
    <path d="M 61.509545 20.641818 
L 75.93012 20.641818 
L 90.350694 20.641818 
L 104.771268 20.641818 
L 119.191842 20.641818 
L 133.612416 26.921017 
L 148.03299 96.340847 
L 162.453565 102.819803 
L 176.874139 138.92152 
L 191.294713 170.914047 
L 205.715287 170.518328 
L 220.135861 151.121548 
L 234.556435 109.651293 
L 248.97701 85.980435 
L 263.397584 44.847541 
L 277.818158 20.641818 
L 292.238732 20.641818 
L 306.659306 20.641818 
L 321.07988 20.641818 
L 335.500455 20.641818 
" clip-path="url(#pe6a6981ed7)" style="fill: none; stroke: #f0e68c; stroke-width: 1.5; stroke-linecap: square"/>
    <defs>
     <path id="mbe6fd61d97" d="M 0 2 
C 0.530406 2 1.03916 1.789267 1.414214 1.414214 
C 1.789267 1.03916 2 0.530406 2 0 
C 2 -0.530406 1.789267 -1.03916 1.414214 -1.414214 
C 1.03916 -1.789267 0.530406 -2 0 -2 
C -0.530406 -2 -1.03916 -1.789267 -1.414214 -1.414214 
C -1.789267 -1.03916 -2 -0.530406 -2 0 
C -2 0.530406 -1.789267 1.03916 -1.414214 1.414214 
C -1.03916 1.789267 -0.530406 2 0 2 
z
" style="stroke: #f0e68c"/>
    </defs>
    <g clip-path="url(#pe6a6981ed7)">
     <use xlink:href="#mbe6fd61d97" x="61.509545" y="20.641818" style="fill: #f0e68c; stroke: #f0e68c"/>
     <use xlink:href="#mbe6fd61d97" x="75.93012" y="20.641818" style="fill: #f0e68c; stroke: #f0e68c"/>
     <use xlink:href="#mbe6fd61d97" x="90.350694" y="20.641818" style="fill: #f0e68c; stroke: #f0e68c"/>
     <use xlink:href="#mbe6fd61d97" x="104.771268" y="20.641818" style="fill: #f0e68c; stroke: #f0e68c"/>
     <use xlink:href="#mbe6fd61d97" x="119.191842" y="20.641818" style="fill: #f0e68c; stroke: #f0e68c"/>
     <use xlink:href="#mbe6fd61d97" x="133.612416" y="26.921017" style="fill: #f0e68c; stroke: #f0e68c"/>
     <use xlink:href="#mbe6fd61d97" x="148.03299" y="96.340847" style="fill: #f0e68c; stroke: #f0e68c"/>
     <use xlink:href="#mbe6fd61d97" x="162.453565" y="102.819803" style="fill: #f0e68c; stroke: #f0e68c"/>
     <use xlink:href="#mbe6fd61d97" x="176.874139" y="138.92152" style="fill: #f0e68c; stroke: #f0e68c"/>
     <use xlink:href="#mbe6fd61d97" x="191.294713" y="170.914047" style="fill: #f0e68c; stroke: #f0e68c"/>
     <use xlink:href="#mbe6fd61d97" x="205.715287" y="170.518328" style="fill: #f0e68c; stroke: #f0e68c"/>
     <use xlink:href="#mbe6fd61d97" x="220.135861" y="151.121548" style="fill: #f0e68c; stroke: #f0e68c"/>
     <use xlink:href="#mbe6fd61d97" x="234.556435" y="109.651293" style="fill: #f0e68c; stroke: #f0e68c"/>
     <use xlink:href="#mbe6fd61d97" x="248.97701" y="85.980435" style="fill: #f0e68c; stroke: #f0e68c"/>
     <use xlink:href="#mbe6fd61d97" x="263.397584" y="44.847541" style="fill: #f0e68c; stroke: #f0e68c"/>
     <use xlink:href="#mbe6fd61d97" x="277.818158" y="20.641818" style="fill: #f0e68c; stroke: #f0e68c"/>
     <use xlink:href="#mbe6fd61d97" x="292.238732" y="20.641818" style="fill: #f0e68c; stroke: #f0e68c"/>
     <use xlink:href="#mbe6fd61d97" x="306.659306" y="20.641818" style="fill: #f0e68c; stroke: #f0e68c"/>
     <use xlink:href="#mbe6fd61d97" x="321.07988" y="20.641818" style="fill: #f0e68c; stroke: #f0e68c"/>
     <use xlink:href="#mbe6fd61d97" x="335.500455" y="20.641818" style="fill: #f0e68c; stroke: #f0e68c"/>
    </g>
   </g>
   <g id="line2d_25">
    <path d="M 61.509545 20.641818 
L 75.93012 20.641818 
L 90.350694 20.641818 
L 104.771268 20.641818 
L 119.191842 20.641818 
L 133.612416 20.641818 
L 148.03299 53.007541 
L 162.453565 84.509277 
L 176.874139 107.949598 
L 191.294713 127.852178 
L 205.715287 124.432966 
L 220.135861 130.027848 
L 234.556435 58.665175 
L 248.97701 44.193137 
L 263.397584 20.641818 
L 277.818158 20.641818 
L 292.238732 20.641818 
L 306.659306 20.641818 
L 321.07988 20.641818 
L 335.500455 20.641818 
" clip-path="url(#pe6a6981ed7)" style="fill: none; stroke: #228b22; stroke-width: 1.5; stroke-linecap: square"/>
    <defs>
     <path id="m14c06f1cf5" d="M 0 -2 
L -2 2 
L 2 2 
z
" style="stroke: #228b22; stroke-linejoin: miter"/>
    </defs>
    <g clip-path="url(#pe6a6981ed7)">
     <use xlink:href="#m14c06f1cf5" x="61.509545" y="20.641818" style="fill: #228b22; stroke: #228b22; stroke-linejoin: miter"/>
     <use xlink:href="#m14c06f1cf5" x="75.93012" y="20.641818" style="fill: #228b22; stroke: #228b22; stroke-linejoin: miter"/>
     <use xlink:href="#m14c06f1cf5" x="90.350694" y="20.641818" style="fill: #228b22; stroke: #228b22; stroke-linejoin: miter"/>
     <use xlink:href="#m14c06f1cf5" x="104.771268" y="20.641818" style="fill: #228b22; stroke: #228b22; stroke-linejoin: miter"/>
     <use xlink:href="#m14c06f1cf5" x="119.191842" y="20.641818" style="fill: #228b22; stroke: #228b22; stroke-linejoin: miter"/>
     <use xlink:href="#m14c06f1cf5" x="133.612416" y="20.641818" style="fill: #228b22; stroke: #228b22; stroke-linejoin: miter"/>
     <use xlink:href="#m14c06f1cf5" x="148.03299" y="53.007541" style="fill: #228b22; stroke: #228b22; stroke-linejoin: miter"/>
     <use xlink:href="#m14c06f1cf5" x="162.453565" y="84.509277" style="fill: #228b22; stroke: #228b22; stroke-linejoin: miter"/>
     <use xlink:href="#m14c06f1cf5" x="176.874139" y="107.949598" style="fill: #228b22; stroke: #228b22; stroke-linejoin: miter"/>
     <use xlink:href="#m14c06f1cf5" x="191.294713" y="127.852178" style="fill: #228b22; stroke: #228b22; stroke-linejoin: miter"/>
     <use xlink:href="#m14c06f1cf5" x="205.715287" y="124.432966" style="fill: #228b22; stroke: #228b22; stroke-linejoin: miter"/>
     <use xlink:href="#m14c06f1cf5" x="220.135861" y="130.027848" style="fill: #228b22; stroke: #228b22; stroke-linejoin: miter"/>
     <use xlink:href="#m14c06f1cf5" x="234.556435" y="58.665175" style="fill: #228b22; stroke: #228b22; stroke-linejoin: miter"/>
     <use xlink:href="#m14c06f1cf5" x="248.97701" y="44.193137" style="fill: #228b22; stroke: #228b22; stroke-linejoin: miter"/>
     <use xlink:href="#m14c06f1cf5" x="263.397584" y="20.641818" style="fill: #228b22; stroke: #228b22; stroke-linejoin: miter"/>
     <use xlink:href="#m14c06f1cf5" x="277.818158" y="20.641818" style="fill: #228b22; stroke: #228b22; stroke-linejoin: miter"/>
     <use xlink:href="#m14c06f1cf5" x="292.238732" y="20.641818" style="fill: #228b22; stroke: #228b22; stroke-linejoin: miter"/>
     <use xlink:href="#m14c06f1cf5" x="306.659306" y="20.641818" style="fill: #228b22; stroke: #228b22; stroke-linejoin: miter"/>
     <use xlink:href="#m14c06f1cf5" x="321.07988" y="20.641818" style="fill: #228b22; stroke: #228b22; stroke-linejoin: miter"/>
     <use xlink:href="#m14c06f1cf5" x="335.500455" y="20.641818" style="fill: #228b22; stroke: #228b22; stroke-linejoin: miter"/>
    </g>
   </g>
   <g id="line2d_26">
    <path d="M 61.509545 20.641818 
L 75.93012 20.641818 
L 90.350694 20.641818 
L 104.771268 20.641818 
L 119.191842 20.641818 
L 133.612416 20.641818 
L 148.03299 34.692129 
L 162.453565 62.813597 
L 176.874139 81.456006 
L 191.294713 91.521479 
L 205.715287 73.192102 
L 220.135861 63.312649 
L 234.556435 49.393555 
L 248.97701 38.760388 
L 263.397584 20.641818 
L 277.818158 20.641818 
L 292.238732 20.641818 
L 306.659306 20.641818 
L 321.07988 20.641818 
L 335.500455 20.641818 
" clip-path="url(#pe6a6981ed7)" style="fill: none; stroke: #4169e1; stroke-width: 1.5; stroke-linecap: square"/>
    <defs>
     <path id="m6bb8a32e2f" d="M -0.666667 2 
L 0.666667 2 
L 0.666667 0.666667 
L 2 0.666667 
L 2 -0.666667 
L 0.666667 -0.666667 
L 0.666667 -2 
L -0.666667 -2 
L -0.666667 -0.666667 
L -2 -0.666667 
L -2 0.666667 
L -0.666667 0.666667 
z
" style="stroke: #4169e1; stroke-linejoin: miter"/>
    </defs>
    <g clip-path="url(#pe6a6981ed7)">
     <use xlink:href="#m6bb8a32e2f" x="61.509545" y="20.641818" style="fill: #4169e1; stroke: #4169e1; stroke-linejoin: miter"/>
     <use xlink:href="#m6bb8a32e2f" x="75.93012" y="20.641818" style="fill: #4169e1; stroke: #4169e1; stroke-linejoin: miter"/>
     <use xlink:href="#m6bb8a32e2f" x="90.350694" y="20.641818" style="fill: #4169e1; stroke: #4169e1; stroke-linejoin: miter"/>
     <use xlink:href="#m6bb8a32e2f" x="104.771268" y="20.641818" style="fill: #4169e1; stroke: #4169e1; stroke-linejoin: miter"/>
     <use xlink:href="#m6bb8a32e2f" x="119.191842" y="20.641818" style="fill: #4169e1; stroke: #4169e1; stroke-linejoin: miter"/>
     <use xlink:href="#m6bb8a32e2f" x="133.612416" y="20.641818" style="fill: #4169e1; stroke: #4169e1; stroke-linejoin: miter"/>
     <use xlink:href="#m6bb8a32e2f" x="148.03299" y="34.692129" style="fill: #4169e1; stroke: #4169e1; stroke-linejoin: miter"/>
     <use xlink:href="#m6bb8a32e2f" x="162.453565" y="62.813597" style="fill: #4169e1; stroke: #4169e1; stroke-linejoin: miter"/>
     <use xlink:href="#m6bb8a32e2f" x="176.874139" y="81.456006" style="fill: #4169e1; stroke: #4169e1; stroke-linejoin: miter"/>
     <use xlink:href="#m6bb8a32e2f" x="191.294713" y="91.521479" style="fill: #4169e1; stroke: #4169e1; stroke-linejoin: miter"/>
     <use xlink:href="#m6bb8a32e2f" x="205.715287" y="73.192102" style="fill: #4169e1; stroke: #4169e1; stroke-linejoin: miter"/>
     <use xlink:href="#m6bb8a32e2f" x="220.135861" y="63.312649" style="fill: #4169e1; stroke: #4169e1; stroke-linejoin: miter"/>
     <use xlink:href="#m6bb8a32e2f" x="234.556435" y="49.393555" style="fill: #4169e1; stroke: #4169e1; stroke-linejoin: miter"/>
     <use xlink:href="#m6bb8a32e2f" x="248.97701" y="38.760388" style="fill: #4169e1; stroke: #4169e1; stroke-linejoin: miter"/>
     <use xlink:href="#m6bb8a32e2f" x="263.397584" y="20.641818" style="fill: #4169e1; stroke: #4169e1; stroke-linejoin: miter"/>
     <use xlink:href="#m6bb8a32e2f" x="277.818158" y="20.641818" style="fill: #4169e1; stroke: #4169e1; stroke-linejoin: miter"/>
     <use xlink:href="#m6bb8a32e2f" x="292.238732" y="20.641818" style="fill: #4169e1; stroke: #4169e1; stroke-linejoin: miter"/>
     <use xlink:href="#m6bb8a32e2f" x="306.659306" y="20.641818" style="fill: #4169e1; stroke: #4169e1; stroke-linejoin: miter"/>
     <use xlink:href="#m6bb8a32e2f" x="321.07988" y="20.641818" style="fill: #4169e1; stroke: #4169e1; stroke-linejoin: miter"/>
     <use xlink:href="#m6bb8a32e2f" x="335.500455" y="20.641818" style="fill: #4169e1; stroke: #4169e1; stroke-linejoin: miter"/>
    </g>
   </g>
   <g id="patch_3">
    <path d="M 47.81 227.32 
L 47.81 10.8 
" style="fill: none; stroke: #000000; stroke-width: 0.8; stroke-linejoin: miter; stroke-linecap: square"/>
   </g>
   <g id="patch_4">
    <path d="M 349.2 227.32 
L 349.2 10.8 
" style="fill: none; stroke: #000000; stroke-width: 0.8; stroke-linejoin: miter; stroke-linecap: square"/>
   </g>
   <g id="patch_5">
    <path d="M 47.81 227.32 
L 349.2 227.32 
" style="fill: none; stroke: #000000; stroke-width: 0.8; stroke-linejoin: miter; stroke-linecap: square"/>
   </g>
   <g id="patch_6">
    <path d="M 47.81 10.8 
L 349.2 10.8 
" style="fill: none; stroke: #000000; stroke-width: 0.8; stroke-linejoin: miter; stroke-linecap: square"/>
   </g>
   <g id="legend_1">
    <g id="patch_7">
     <path d="M 54.81 222.32 
L 129.305313 222.32 
Q 131.305313 222.32 131.305313 220.32 
L 131.305313 162.6075 
Q 131.305313 160.6075 129.305313 160.6075 
L 54.81 160.6075 
Q 52.81 160.6075 52.81 162.6075 
L 52.81 220.32 
Q 52.81 222.32 54.81 222.32 
z
" style="fill: #ffffff; opacity: 0.8; stroke: #cccccc; stroke-linejoin: miter"/>
    </g>
    <g id="line2d_27">
     <path d="M 56.81 168.705938 
L 66.81 168.705938 
L 76.81 168.705938 
" style="fill: none; stroke: #ff8c00; stroke-width: 1.5; stroke-linecap: square"/>
     <g>
      <use xlink:href="#m7290cb5200" x="66.81" y="168.705938" style="fill: #ff8c00; stroke: #ff8c00"/>
     </g>
    </g>
    <g id="text_14">
     <!-- 3 angles -->
     <g transform="translate(84.81 172.205938) scale(0.1 -0.1)">
      <defs>
       <path id="DejaVuSans-33" d="M 2597 2516 
Q 3050 2419 3304 2112 
Q 3559 1806 3559 1356 
Q 3559 666 3084 287 
Q 2609 -91 1734 -91 
Q 1441 -91 1130 -33 
Q 819 25 488 141 
L 488 750 
Q 750 597 1062 519 
Q 1375 441 1716 441 
Q 2309 441 2620 675 
Q 2931 909 2931 1356 
Q 2931 1769 2642 2001 
Q 2353 2234 1838 2234 
L 1294 2234 
L 1294 2753 
L 1863 2753 
Q 2328 2753 2575 2939 
Q 2822 3125 2822 3475 
Q 2822 3834 2567 4026 
Q 2313 4219 1838 4219 
Q 1578 4219 1281 4162 
Q 984 4106 628 3988 
L 628 4550 
Q 988 4650 1302 4700 
Q 1616 4750 1894 4750 
Q 2613 4750 3031 4423 
Q 3450 4097 3450 3541 
Q 3450 3153 3228 2886 
Q 3006 2619 2597 2516 
z
" transform="scale(0.015625)"/>
       <path id="DejaVuSans-67" d="M 2906 1791 
Q 2906 2416 2648 2759 
Q 2391 3103 1925 3103 
Q 1463 3103 1205 2759 
Q 947 2416 947 1791 
Q 947 1169 1205 825 
Q 1463 481 1925 481 
Q 2391 481 2648 825 
Q 2906 1169 2906 1791 
z
M 3481 434 
Q 3481 -459 3084 -895 
Q 2688 -1331 1869 -1331 
Q 1566 -1331 1297 -1286 
Q 1028 -1241 775 -1147 
L 775 -588 
Q 1028 -725 1275 -790 
Q 1522 -856 1778 -856 
Q 2344 -856 2625 -561 
Q 2906 -266 2906 331 
L 2906 616 
Q 2728 306 2450 153 
Q 2172 0 1784 0 
Q 1141 0 747 490 
Q 353 981 353 1791 
Q 353 2603 747 3093 
Q 1141 3584 1784 3584 
Q 2172 3584 2450 3431 
Q 2728 3278 2906 2969 
L 2906 3500 
L 3481 3500 
L 3481 434 
z
" transform="scale(0.015625)"/>
       <path id="DejaVuSans-73" d="M 2834 3397 
L 2834 2853 
Q 2591 2978 2328 3040 
Q 2066 3103 1784 3103 
Q 1356 3103 1142 2972 
Q 928 2841 928 2578 
Q 928 2378 1081 2264 
Q 1234 2150 1697 2047 
L 1894 2003 
Q 2506 1872 2764 1633 
Q 3022 1394 3022 966 
Q 3022 478 2636 193 
Q 2250 -91 1575 -91 
Q 1294 -91 989 -36 
Q 684 19 347 128 
L 347 722 
Q 666 556 975 473 
Q 1284 391 1588 391 
Q 1994 391 2212 530 
Q 2431 669 2431 922 
Q 2431 1156 2273 1281 
Q 2116 1406 1581 1522 
L 1381 1569 
Q 847 1681 609 1914 
Q 372 2147 372 2553 
Q 372 3047 722 3315 
Q 1072 3584 1716 3584 
Q 2034 3584 2315 3537 
Q 2597 3491 2834 3397 
z
" transform="scale(0.015625)"/>
      </defs>
      <use xlink:href="#DejaVuSans-33"/>
      <use xlink:href="#DejaVuSans-20" transform="translate(63.623047 0)"/>
      <use xlink:href="#DejaVuSans-61" transform="translate(95.410156 0)"/>
      <use xlink:href="#DejaVuSans-6e" transform="translate(156.689453 0)"/>
      <use xlink:href="#DejaVuSans-67" transform="translate(220.068359 0)"/>
      <use xlink:href="#DejaVuSans-6c" transform="translate(283.544922 0)"/>
      <use xlink:href="#DejaVuSans-65" transform="translate(311.328125 0)"/>
      <use xlink:href="#DejaVuSans-73" transform="translate(372.851562 0)"/>
     </g>
    </g>
    <g id="line2d_28">
     <path d="M 56.81 183.384062 
L 66.81 183.384062 
L 76.81 183.384062 
" style="fill: none; stroke: #f0e68c; stroke-width: 1.5; stroke-linecap: square"/>
     <g>
      <use xlink:href="#mbe6fd61d97" x="66.81" y="183.384062" style="fill: #f0e68c; stroke: #f0e68c"/>
     </g>
    </g>
    <g id="text_15">
     <!-- 4 angles -->
     <g transform="translate(84.81 186.884062) scale(0.1 -0.1)">
      <use xlink:href="#DejaVuSans-34"/>
      <use xlink:href="#DejaVuSans-20" transform="translate(63.623047 0)"/>
      <use xlink:href="#DejaVuSans-61" transform="translate(95.410156 0)"/>
      <use xlink:href="#DejaVuSans-6e" transform="translate(156.689453 0)"/>
      <use xlink:href="#DejaVuSans-67" transform="translate(220.068359 0)"/>
      <use xlink:href="#DejaVuSans-6c" transform="translate(283.544922 0)"/>
      <use xlink:href="#DejaVuSans-65" transform="translate(311.328125 0)"/>
      <use xlink:href="#DejaVuSans-73" transform="translate(372.851562 0)"/>
     </g>
    </g>
    <g id="line2d_29">
     <path d="M 56.81 198.062187 
L 66.81 198.062187 
L 76.81 198.062187 
" style="fill: none; stroke: #228b22; stroke-width: 1.5; stroke-linecap: square"/>
     <g>
      <use xlink:href="#m14c06f1cf5" x="66.81" y="198.062187" style="fill: #228b22; stroke: #228b22; stroke-linejoin: miter"/>
     </g>
    </g>
    <g id="text_16">
     <!-- 5 angles -->
     <g transform="translate(84.81 201.562187) scale(0.1 -0.1)">
      <use xlink:href="#DejaVuSans-35"/>
      <use xlink:href="#DejaVuSans-20" transform="translate(63.623047 0)"/>
      <use xlink:href="#DejaVuSans-61" transform="translate(95.410156 0)"/>
      <use xlink:href="#DejaVuSans-6e" transform="translate(156.689453 0)"/>
      <use xlink:href="#DejaVuSans-67" transform="translate(220.068359 0)"/>
      <use xlink:href="#DejaVuSans-6c" transform="translate(283.544922 0)"/>
      <use xlink:href="#DejaVuSans-65" transform="translate(311.328125 0)"/>
      <use xlink:href="#DejaVuSans-73" transform="translate(372.851562 0)"/>
     </g>
    </g>
    <g id="line2d_30">
     <path d="M 56.81 212.740313 
L 66.81 212.740313 
L 76.81 212.740313 
" style="fill: none; stroke: #4169e1; stroke-width: 1.5; stroke-linecap: square"/>
     <g>
      <use xlink:href="#m6bb8a32e2f" x="66.81" y="212.740313" style="fill: #4169e1; stroke: #4169e1; stroke-linejoin: miter"/>
     </g>
    </g>
    <g id="text_17">
     <!-- 6 angles -->
     <g transform="translate(84.81 216.240313) scale(0.1 -0.1)">
      <use xlink:href="#DejaVuSans-36"/>
      <use xlink:href="#DejaVuSans-20" transform="translate(63.623047 0)"/>
      <use xlink:href="#DejaVuSans-61" transform="translate(95.410156 0)"/>
      <use xlink:href="#DejaVuSans-6e" transform="translate(156.689453 0)"/>
      <use xlink:href="#DejaVuSans-67" transform="translate(220.068359 0)"/>
      <use xlink:href="#DejaVuSans-6c" transform="translate(283.544922 0)"/>
      <use xlink:href="#DejaVuSans-65" transform="translate(311.328125 0)"/>
      <use xlink:href="#DejaVuSans-73" transform="translate(372.851562 0)"/>
     </g>
    </g>
   </g>
  </g>
 </g>
 <defs>
  <clipPath id="pe6a6981ed7">
   <rect x="47.81" y="10.8" width="301.39" height="216.52"/>
  </clipPath>
 </defs>
</svg>
