<?xml version="1.0" encoding="utf-8" standalone="no"?>
<!DOCTYPE svg PUBLIC "-//W3C//DTD SVG 1.1//EN"
  "http://www.w3.org/Graphics/SVG/1.1/DTD/svg11.dtd">
<svg xmlns:xlink="http://www.w3.org/1999/xlink" width="360pt" height="270pt" viewBox="0 0 360 270" xmlns="http://www.w3.org/2000/svg" version="1.1">
 <metadata>
  <rdf:RDF xmlns:dc="http://purl.org/dc/elements/1.1/" xmlns:cc="http://creativecommons.org/ns#" xmlns:rdf="http://www.w3.org/1999/02/22-rdf-syntax-ns#">
   <cc:Work>
    <dc:type rdf:resource="http://purl.org/dc/dcmitype/StillImage"/>
    <dc:date>2026-01-03T02:24:00.006675</dc:date>
    <dc:format>image/svg+xml</dc:format>
    <dc:creator>
     <cc:Agent>
      <dc:title>Matplotlib v3.10.8, https://matplotlib.org/</dc:title>
     </cc:Agent>
    </dc:creator>
   </cc:Work>
  </rdf:RDF>
 </metadata>
 <defs>
  <style type="text/css">*{stroke-linejoin: round; stroke-linecap: butt}</style>
 </defs>
 <g id="figure_1">
  <g id="patch_1">
   <path d="M 0 270 
L 360 270 
L 360 0 
L 0 0 
z
" style="fill: #ffffff"/>
  </g>
  <g id="axes_1">
   <g id="patch_2">
    <path d="M 54.2 228.04 
L 349.2 228.04 
L 349.2 10.8 
L 54.2 10.8 
z
" style="fill: #ffffff"/>
   </g>
   <g id="matplotlib.axis_1">
    <g id="xtick_1">
     <g id="line2d_1">
      <path d="M 67.609091 228.04 
L 67.609091 10.8 
" clip-path="url(#p6179aa02de)" style="fill: none; stroke-dasharray: 2.96,1.28; stroke-dashoffset: 0; stroke: #b0b0b0; stroke-opacity: 0.5; stroke-width: 0.8"/>
     </g>
     <g id="line2d_2">
      <defs>
       <path id="m9194ee2405" d="M 0 0 
L 0 3.5 
" style="stroke: #000000; stroke-width: 0.8"/>
      </defs>
      <g>
       <use xlink:href="#m9194ee2405" x="67.609091" y="228.04" style="stroke: #000000; stroke-width: 0.8"/>
      </g>
     </g>
     <g id="text_1">
      <!-- 0.00 -->
      <g transform="translate(56.476278 242.638438) scale(0.1 -0.1)">
       <defs>
        <path id="DejaVuSans-30" d="M 2034 4250 
Q 1547 4250 1301 3770 
Q 1056 3291 1056 2328 
Q 1056 1369 1301 889 
Q 1547 409 2034 409 
Q 2525 409 2770 889 
Q 3016 1369 3016 2328 
Q 3016 3291 2770 3770 
Q 2525 4250 2034 4250 
z
M 2034 4750 
Q 2819 4750 3233 4129 
Q 3647 3509 3647 2328 
Q 3647 1150 3233 529 
Q 2819 -91 2034 -91 
Q 1250 -91 836 529 
Q 422 1150 422 2328 
Q 422 3509 836 4129 
Q 1250 4750 2034 4750 
z
" transform="scale(0.015625)"/>
        <path id="DejaVuSans-2e" d="M 684 794 
L 1344 794 
L 1344 0 
L 684 0 
L 684 794 
z
" transform="scale(0.015625)"/>
       </defs>
       <use xlink:href="#DejaVuSans-30"/>
       <use xlink:href="#DejaVuSans-2e" transform="translate(63.623047 0)"/>
       <use xlink:href="#DejaVuSans-30" transform="translate(95.410156 0)"/>
       <use xlink:href="#DejaVuSans-30" transform="translate(159.033203 0)"/>
      </g>
     </g>
    </g>
    <g id="xtick_2">
     <g id="line2d_3">
      <path d="M 112.306061 228.04 
L 112.306061 10.8 
" clip-path="url(#p6179aa02de)" style="fill: none; stroke-dasharray: 2.96,1.28; stroke-dashoffset: 0; stroke: #b0b0b0; stroke-opacity: 0.5; stroke-width: 0.8"/>
     </g>
     <g id="line2d_4">
      <g>
       <use xlink:href="#m9194ee2405" x="112.306061" y="228.04" style="stroke: #000000; stroke-width: 0.8"/>
      </g>
     </g>
     <g id="text_2">
      <!-- 0.05 -->
      <g transform="translate(101.173248 242.638438) scale(0.1 -0.1)">
       <defs>
        <path id="DejaVuSans-35" d="M 691 4666 
L 3169 4666 
L 3169 4134 
L 1269 4134 
L 1269 2991 
Q 1406 3038 1543 3061 
Q 1681 3084 1819 3084 
Q 2600 3084 3056 2656 
Q 3513 2228 3513 1497 
Q 3513 744 3044 326 
Q 2575 -91 1722 -91 
Q 1428 -91 1123 -41 
Q 819 9 494 109 
L 494 744 
Q 775 591 1075 516 
Q 1375 441 1709 441 
Q 2250 441 2565 725 
Q 2881 1009 2881 1497 
Q 2881 1984 2565 2268 
Q 2250 2553 1709 2553 
Q 1456 2553 1204 2497 
Q 953 2441 691 2322 
L 691 4666 
z
" transform="scale(0.015625)"/>
       </defs>
       <use xlink:href="#DejaVuSans-30"/>
       <use xlink:href="#DejaVuSans-2e" transform="translate(63.623047 0)"/>
       <use xlink:href="#DejaVuSans-30" transform="translate(95.410156 0)"/>
       <use xlink:href="#DejaVuSans-35" transform="translate(159.033203 0)"/>
      </g>
     </g>
    </g>
    <g id="xtick_3">
     <g id="line2d_5">
      <path d="M 157.00303 228.04 
L 157.00303 10.8 
" clip-path="url(#p6179aa02de)" style="fill: none; stroke-dasharray: 2.96,1.28; stroke-dashoffset: 0; stroke: #b0b0b0; stroke-opacity: 0.5; stroke-width: 0.8"/>
     </g>
     <g id="line2d_6">
      <g>
       <use xlink:href="#m9194ee2405" x="157.00303" y="228.04" style="stroke: #000000; stroke-width: 0.8"/>
      </g>
     </g>
     <g id="text_3">
      <!-- 0.10 -->
      <g transform="translate(145.870218 242.638438) scale(0.1 -0.1)">
       <defs>
        <path id="DejaVuSans-31" d="M 794 531 
L 1825 531 
L 1825 4091 
L 703 3866 
L 703 4441 
L 1819 4666 
L 2450 4666 
L 2450 531 
L 3481 531 
L 3481 0 
L 794 0 
L 794 531 
z
" transform="scale(0.015625)"/>
       </defs>
       <use xlink:href="#DejaVuSans-30"/>
       <use xlink:href="#DejaVuSans-2e" transform="translate(63.623047 0)"/>
       <use xlink:href="#DejaVuSans-31" transform="translate(95.410156 0)"/>
       <use xlink:href="#DejaVuSans-30" transform="translate(159.033203 0)"/>
      </g>
     </g>
    </g>
    <g id="xtick_4">
     <g id="line2d_7">
      <path d="M 201.7 228.04 
L 201.7 10.8 
" clip-path="url(#p6179aa02de)" style="fill: none; stroke-dasharray: 2.96,1.28; stroke-dashoffset: 0; stroke: #b0b0b0; stroke-opacity: 0.5; stroke-width: 0.8"/>
     </g>
     <g id="line2d_8">
      <g>
       <use xlink:href="#m9194ee2405" x="201.7" y="228.04" style="stroke: #000000; stroke-width: 0.8"/>
      </g>
     </g>
     <g id="text_4">
      <!-- 0.15 -->
      <g transform="translate(190.567188 242.638438) scale(0.1 -0.1)">
       <use xlink:href="#DejaVuSans-30"/>
       <use xlink:href="#DejaVuSans-2e" transform="translate(63.623047 0)"/>
       <use xlink:href="#DejaVuSans-31" transform="translate(95.410156 0)"/>
       <use xlink:href="#DejaVuSans-35" transform="translate(159.033203 0)"/>
      </g>
     </g>
    </g>
    <g id="xtick_5">
     <g id="line2d_9">
      <path d="M 246.39697 228.04 
L 246.39697 10.8 
" clip-path="url(#p6179aa02de)" style="fill: none; stroke-dasharray: 2.96,1.28; stroke-dashoffset: 0; stroke: #b0b0b0; stroke-opacity: 0.5; stroke-width: 0.8"/>
     </g>
     <g id="line2d_10">
      <g>
       <use xlink:href="#m9194ee2405" x="246.39697" y="228.04" style="stroke: #000000; stroke-width: 0.8"/>
      </g>
     </g>
     <g id="text_5">
      <!-- 0.20 -->
      <g transform="translate(235.264157 242.638438) scale(0.1 -0.1)">
       <defs>
        <path id="DejaVuSans-32" d="M 1228 531 
L 3431 531 
L 3431 0 
L 469 0 
L 469 531 
Q 828 903 1448 1529 
Q 2069 2156 2228 2338 
Q 2531 2678 2651 2914 
Q 2772 3150 2772 3378 
Q 2772 3750 2511 3984 
Q 2250 4219 1831 4219 
Q 1534 4219 1204 4116 
Q 875 4013 500 3803 
L 500 4441 
Q 881 4594 1212 4672 
Q 1544 4750 1819 4750 
Q 2544 4750 2975 4387 
Q 3406 4025 3406 3419 
Q 3406 3131 3298 2873 
Q 3191 2616 2906 2266 
Q 2828 2175 2409 1742 
Q 1991 1309 1228 531 
z
" transform="scale(0.015625)"/>
       </defs>
       <use xlink:href="#DejaVuSans-30"/>
       <use xlink:href="#DejaVuSans-2e" transform="translate(63.623047 0)"/>
       <use xlink:href="#DejaVuSans-32" transform="translate(95.410156 0)"/>
       <use xlink:href="#DejaVuSans-30" transform="translate(159.033203 0)"/>
      </g>
     </g>
    </g>
    <g id="xtick_6">
     <g id="line2d_11">
      <path d="M 291.093939 228.04 
L 291.093939 10.8 
" clip-path="url(#p6179aa02de)" style="fill: none; stroke-dasharray: 2.96,1.28; stroke-dashoffset: 0; stroke: #b0b0b0; stroke-opacity: 0.5; stroke-width: 0.8"/>
     </g>
     <g id="line2d_12">
      <g>
       <use xlink:href="#m9194ee2405" x="291.093939" y="228.04" style="stroke: #000000; stroke-width: 0.8"/>
      </g>
     </g>
     <g id="text_6">
      <!-- 0.25 -->
      <g transform="translate(279.961127 242.638438) scale(0.1 -0.1)">
       <use xlink:href="#DejaVuSans-30"/>
       <use xlink:href="#DejaVuSans-2e" transform="translate(63.623047 0)"/>
       <use xlink:href="#DejaVuSans-32" transform="translate(95.410156 0)"/>
       <use xlink:href="#DejaVuSans-35" transform="translate(159.033203 0)"/>
      </g>
     </g>
    </g>
    <g id="xtick_7">
     <g id="line2d_13">
      <path d="M 335.790909 228.04 
L 335.790909 10.8 
" clip-path="url(#p6179aa02de)" style="fill: none; stroke-dasharray: 2.96,1.28; stroke-dashoffset: 0; stroke: #b0b0b0; stroke-opacity: 0.5; stroke-width: 0.8"/>
     </g>
     <g id="line2d_14">
      <g>
       <use xlink:href="#m9194ee2405" x="335.790909" y="228.04" style="stroke: #000000; stroke-width: 0.8"/>
      </g>
     </g>
     <g id="text_7">
      <!-- 0.30 -->
      <g transform="translate(324.658097 242.638438) scale(0.1 -0.1)">
       <defs>
        <path id="DejaVuSans-33" d="M 2597 2516 
Q 3050 2419 3304 2112 
Q 3559 1806 3559 1356 
Q 3559 666 3084 287 
Q 2609 -91 1734 -91 
Q 1441 -91 1130 -33 
Q 819 25 488 141 
L 488 750 
Q 750 597 1062 519 
Q 1375 441 1716 441 
Q 2309 441 2620 675 
Q 2931 909 2931 1356 
Q 2931 1769 2642 2001 
Q 2353 2234 1838 2234 
L 1294 2234 
L 1294 2753 
L 1863 2753 
Q 2328 2753 2575 2939 
Q 2822 3125 2822 3475 
Q 2822 3834 2567 4026 
Q 2313 4219 1838 4219 
Q 1578 4219 1281 4162 
Q 984 4106 628 3988 
L 628 4550 
Q 988 4650 1302 4700 
Q 1616 4750 1894 4750 
Q 2613 4750 3031 4423 
Q 3450 4097 3450 3541 
Q 3450 3153 3228 2886 
Q 3006 2619 2597 2516 
z
" transform="scale(0.015625)"/>
       </defs>
       <use xlink:href="#DejaVuSans-30"/>
       <use xlink:href="#DejaVuSans-2e" transform="translate(63.623047 0)"/>
       <use xlink:href="#DejaVuSans-33" transform="translate(95.410156 0)"/>
       <use xlink:href="#DejaVuSans-30" transform="translate(159.033203 0)"/>
      </g>
     </g>
    </g>
    <g id="text_8">
     <!-- symmetric detector error rate -->
     <g transform="translate(127.027344 256.316562) scale(0.1 -0.1)">
      <defs>
       <path id="DejaVuSans-73" d="M 2834 3397 
L 2834 2853 
Q 2591 2978 2328 3040 
Q 2066 3103 1784 3103 
Q 1356 3103 1142 2972 
Q 928 2841 928 2578 
Q 928 2378 1081 2264 
Q 1234 2150 1697 2047 
L 1894 2003 
Q 2506 1872 2764 1633 
Q 3022 1394 3022 966 
Q 3022 478 2636 193 
Q 2250 -91 1575 -91 
Q 1294 -91 989 -36 
Q 684 19 347 128 
L 347 722 
Q 666 556 975 473 
Q 1284 391 1588 391 
Q 1994 391 2212 530 
Q 2431 669 2431 922 
Q 2431 1156 2273 1281 
Q 2116 1406 1581 1522 
L 1381 1569 
Q 847 1681 609 1914 
Q 372 2147 372 2553 
Q 372 3047 722 3315 
Q 1072 3584 1716 3584 
Q 2034 3584 2315 3537 
Q 2597 3491 2834 3397 
z
" transform="scale(0.015625)"/>
       <path id="DejaVuSans-79" d="M 2059 -325 
Q 1816 -950 1584 -1140 
Q 1353 -1331 966 -1331 
L 506 -1331 
L 506 -850 
L 844 -850 
Q 1081 -850 1212 -737 
Q 1344 -625 1503 -206 
L 1606 56 
L 191 3500 
L 800 3500 
L 1894 763 
L 2988 3500 
L 3597 3500 
L 2059 -325 
z
" transform="scale(0.015625)"/>
       <path id="DejaVuSans-6d" d="M 3328 2828 
Q 3544 3216 3844 3400 
Q 4144 3584 4550 3584 
Q 5097 3584 5394 3201 
Q 5691 2819 5691 2113 
L 5691 0 
L 5113 0 
L 5113 2094 
Q 5113 2597 4934 2840 
Q 4756 3084 4391 3084 
Q 3944 3084 3684 2787 
Q 3425 2491 3425 1978 
L 3425 0 
L 2847 0 
L 2847 2094 
Q 2847 2600 2669 2842 
Q 2491 3084 2119 3084 
Q 1678 3084 1418 2786 
Q 1159 2488 1159 1978 
L 1159 0 
L 581 0 
L 581 3500 
L 1159 3500 
L 1159 2956 
Q 1356 3278 1631 3431 
Q 1906 3584 2284 3584 
Q 2666 3584 2933 3390 
Q 3200 3197 3328 2828 
z
" transform="scale(0.015625)"/>
       <path id="DejaVuSans-65" d="M 3597 1894 
L 3597 1613 
L 953 1613 
Q 991 1019 1311 708 
Q 1631 397 2203 397 
Q 2534 397 2845 478 
Q 3156 559 3463 722 
L 3463 178 
Q 3153 47 2828 -22 
Q 2503 -91 2169 -91 
Q 1331 -91 842 396 
Q 353 884 353 1716 
Q 353 2575 817 3079 
Q 1281 3584 2069 3584 
Q 2775 3584 3186 3129 
Q 3597 2675 3597 1894 
z
M 3022 2063 
Q 3016 2534 2758 2815 
Q 2500 3097 2075 3097 
Q 1594 3097 1305 2825 
Q 1016 2553 972 2059 
L 3022 2063 
z
" transform="scale(0.015625)"/>
       <path id="DejaVuSans-74" d="M 1172 4494 
L 1172 3500 
L 2356 3500 
L 2356 3053 
L 1172 3053 
L 1172 1153 
Q 1172 725 1289 603 
Q 1406 481 1766 481 
L 2356 481 
L 2356 0 
L 1766 0 
Q 1100 0 847 248 
Q 594 497 594 1153 
L 594 3053 
L 172 3053 
L 172 3500 
L 594 3500 
L 594 4494 
L 1172 4494 
z
" transform="scale(0.015625)"/>
       <path id="DejaVuSans-72" d="M 2631 2963 
Q 2534 3019 2420 3045 
Q 2306 3072 2169 3072 
Q 1681 3072 1420 2755 
Q 1159 2438 1159 1844 
L 1159 0 
L 581 0 
L 581 3500 
L 1159 3500 
L 1159 2956 
Q 1341 3275 1631 3429 
Q 1922 3584 2338 3584 
Q 2397 3584 2469 3576 
Q 2541 3569 2628 3553 
L 2631 2963 
z
" transform="scale(0.015625)"/>
       <path id="DejaVuSans-69" d="M 603 3500 
L 1178 3500 
L 1178 0 
L 603 0 
L 603 3500 
z
M 603 4863 
L 1178 4863 
L 1178 4134 
L 603 4134 
L 603 4863 
z
" transform="scale(0.015625)"/>
       <path id="DejaVuSans-63" d="M 3122 3366 
L 3122 2828 
Q 2878 2963 2633 3030 
Q 2388 3097 2138 3097 
Q 1578 3097 1268 2742 
Q 959 2388 959 1747 
Q 959 1106 1268 751 
Q 1578 397 2138 397 
Q 2388 397 2633 464 
Q 2878 531 3122 666 
L 3122 134 
Q 2881 22 2623 -34 
Q 2366 -91 2075 -91 
Q 1284 -91 818 406 
Q 353 903 353 1747 
Q 353 2603 823 3093 
Q 1294 3584 2113 3584 
Q 2378 3584 2631 3529 
Q 2884 3475 3122 3366 
z
" transform="scale(0.015625)"/>
       <path id="DejaVuSans-20" transform="scale(0.015625)"/>
       <path id="DejaVuSans-64" d="M 2906 2969 
L 2906 4863 
L 3481 4863 
L 3481 0 
L 2906 0 
L 2906 525 
Q 2725 213 2448 61 
Q 2172 -91 1784 -91 
Q 1150 -91 751 415 
Q 353 922 353 1747 
Q 353 2572 751 3078 
Q 1150 3584 1784 3584 
Q 2172 3584 2448 3432 
Q 2725 3281 2906 2969 
z
M 947 1747 
Q 947 1113 1208 752 
Q 1469 391 1925 391 
Q 2381 391 2643 752 
Q 2906 1113 2906 1747 
Q 2906 2381 2643 2742 
Q 2381 3103 1925 3103 
Q 1469 3103 1208 2742 
Q 947 2381 947 1747 
z
" transform="scale(0.015625)"/>
       <path id="DejaVuSans-6f" d="M 1959 3097 
Q 1497 3097 1228 2736 
Q 959 2375 959 1747 
Q 959 1119 1226 758 
Q 1494 397 1959 397 
Q 2419 397 2687 759 
Q 2956 1122 2956 1747 
Q 2956 2369 2687 2733 
Q 2419 3097 1959 3097 
z
M 1959 3584 
Q 2709 3584 3137 3096 
Q 3566 2609 3566 1747 
Q 3566 888 3137 398 
Q 2709 -91 1959 -91 
Q 1206 -91 779 398 
Q 353 888 353 1747 
Q 353 2609 779 3096 
Q 1206 3584 1959 3584 
z
" transform="scale(0.015625)"/>
       <path id="DejaVuSans-61" d="M 2194 1759 
Q 1497 1759 1228 1600 
Q 959 1441 959 1056 
Q 959 750 1161 570 
Q 1363 391 1709 391 
Q 2188 391 2477 730 
Q 2766 1069 2766 1631 
L 2766 1759 
L 2194 1759 
z
M 3341 1997 
L 3341 0 
L 2766 0 
L 2766 531 
Q 2569 213 2275 61 
Q 1981 -91 1556 -91 
Q 1019 -91 701 211 
Q 384 513 384 1019 
Q 384 1609 779 1909 
Q 1175 2209 1959 2209 
L 2766 2209 
L 2766 2266 
Q 2766 2663 2505 2880 
Q 2244 3097 1772 3097 
Q 1472 3097 1187 3025 
Q 903 2953 641 2809 
L 641 3341 
Q 956 3463 1253 3523 
Q 1550 3584 1831 3584 
Q 2591 3584 2966 3190 
Q 3341 2797 3341 1997 
z
" transform="scale(0.015625)"/>
      </defs>
      <use xlink:href="#DejaVuSans-73"/>
      <use xlink:href="#DejaVuSans-79" transform="translate(52.099609 0)"/>
      <use xlink:href="#DejaVuSans-6d" transform="translate(111.279297 0)"/>
      <use xlink:href="#DejaVuSans-6d" transform="translate(208.691406 0)"/>
      <use xlink:href="#DejaVuSans-65" transform="translate(306.103516 0)"/>
      <use xlink:href="#DejaVuSans-74" transform="translate(367.626953 0)"/>
      <use xlink:href="#DejaVuSans-72" transform="translate(406.835938 0)"/>
      <use xlink:href="#DejaVuSans-69" transform="translate(447.949219 0)"/>
      <use xlink:href="#DejaVuSans-63" transform="translate(475.732422 0)"/>
      <use xlink:href="#DejaVuSans-20" transform="translate(530.712891 0)"/>
      <use xlink:href="#DejaVuSans-64" transform="translate(562.5 0)"/>
      <use xlink:href="#DejaVuSans-65" transform="translate(625.976562 0)"/>
      <use xlink:href="#DejaVuSans-74" transform="translate(687.5 0)"/>
      <use xlink:href="#DejaVuSans-65" transform="translate(726.708984 0)"/>
      <use xlink:href="#DejaVuSans-63" transform="translate(788.232422 0)"/>
      <use xlink:href="#DejaVuSans-74" transform="translate(843.212891 0)"/>
      <use xlink:href="#DejaVuSans-6f" transform="translate(882.421875 0)"/>
      <use xlink:href="#DejaVuSans-72" transform="translate(943.603516 0)"/>
      <use xlink:href="#DejaVuSans-20" transform="translate(984.716797 0)"/>
      <use xlink:href="#DejaVuSans-65" transform="translate(1016.503906 0)"/>
      <use xlink:href="#DejaVuSans-72" transform="translate(1078.027344 0)"/>
      <use xlink:href="#DejaVuSans-72" transform="translate(1117.390625 0)"/>
      <use xlink:href="#DejaVuSans-6f" transform="translate(1156.253906 0)"/>
      <use xlink:href="#DejaVuSans-72" transform="translate(1217.435547 0)"/>
      <use xlink:href="#DejaVuSans-20" transform="translate(1258.548828 0)"/>
      <use xlink:href="#DejaVuSans-72" transform="translate(1290.335938 0)"/>
      <use xlink:href="#DejaVuSans-61" transform="translate(1331.449219 0)"/>
      <use xlink:href="#DejaVuSans-74" transform="translate(1392.728516 0)"/>
      <use xlink:href="#DejaVuSans-65" transform="translate(1431.9375 0)"/>
     </g>
    </g>
   </g>
   <g id="matplotlib.axis_2">
    <g id="ytick_1">
     <g id="line2d_15">
      <path d="M 54.2 210.435801 
L 349.2 210.435801 
" clip-path="url(#p6179aa02de)" style="fill: none; stroke-dasharray: 2.96,1.28; stroke-dashoffset: 0; stroke: #b0b0b0; stroke-opacity: 0.5; stroke-width: 0.8"/>
     </g>
     <g id="line2d_16">
      <defs>
       <path id="md59f03451b" d="M 0 0 
L -3.5 0 
" style="stroke: #000000; stroke-width: 0.8"/>
      </defs>
      <g>
       <use xlink:href="#md59f03451b" x="54.2" y="210.435801" style="stroke: #000000; stroke-width: 0.8"/>
      </g>
     </g>
     <g id="text_9">
      <!-- 0.35 -->
      <g transform="translate(24.934375 214.23502) scale(0.1 -0.1)">
       <use xlink:href="#DejaVuSans-30"/>
       <use xlink:href="#DejaVuSans-2e" transform="translate(63.623047 0)"/>
       <use xlink:href="#DejaVuSans-33" transform="translate(95.410156 0)"/>
       <use xlink:href="#DejaVuSans-35" transform="translate(159.033203 0)"/>
      </g>
     </g>
    </g>
    <g id="ytick_2">
     <g id="line2d_17">
      <path d="M 54.2 173.998799 
L 349.2 173.998799 
" clip-path="url(#p6179aa02de)" style="fill: none; stroke-dasharray: 2.96,1.28; stroke-dashoffset: 0; stroke: #b0b0b0; stroke-opacity: 0.5; stroke-width: 0.8"/>
     </g>
     <g id="line2d_18">
      <g>
       <use xlink:href="#md59f03451b" x="54.2" y="173.998799" style="stroke: #000000; stroke-width: 0.8"/>
      </g>
     </g>
     <g id="text_10">
      <!-- 0.40 -->
      <g transform="translate(24.934375 177.798018) scale(0.1 -0.1)">
       <defs>
        <path id="DejaVuSans-34" d="M 2419 4116 
L 825 1625 
L 2419 1625 
L 2419 4116 
z
M 2253 4666 
L 3047 4666 
L 3047 1625 
L 3713 1625 
L 3713 1100 
L 3047 1100 
L 3047 0 
L 2419 0 
L 2419 1100 
L 313 1100 
L 313 1709 
L 2253 4666 
z
" transform="scale(0.015625)"/>
       </defs>
       <use xlink:href="#DejaVuSans-30"/>
       <use xlink:href="#DejaVuSans-2e" transform="translate(63.623047 0)"/>
       <use xlink:href="#DejaVuSans-34" transform="translate(95.410156 0)"/>
       <use xlink:href="#DejaVuSans-30" transform="translate(159.033203 0)"/>
      </g>
     </g>
    </g>
    <g id="ytick_3">
     <g id="line2d_19">
      <path d="M 54.2 137.561798 
L 349.2 137.561798 
" clip-path="url(#p6179aa02de)" style="fill: none; stroke-dasharray: 2.96,1.28; stroke-dashoffset: 0; stroke: #b0b0b0; stroke-opacity: 0.5; stroke-width: 0.8"/>
     </g>
     <g id="line2d_20">
      <g>
       <use xlink:href="#md59f03451b" x="54.2" y="137.561798" style="stroke: #000000; stroke-width: 0.8"/>
      </g>
     </g>
     <g id="text_11">
      <!-- 0.45 -->
      <g transform="translate(24.934375 141.361016) scale(0.1 -0.1)">
       <use xlink:href="#DejaVuSans-30"/>
       <use xlink:href="#DejaVuSans-2e" transform="translate(63.623047 0)"/>
       <use xlink:href="#DejaVuSans-34" transform="translate(95.410156 0)"/>
       <use xlink:href="#DejaVuSans-35" transform="translate(159.033203 0)"/>
      </g>
     </g>
    </g>
    <g id="ytick_4">
     <g id="line2d_21">
      <path d="M 54.2 101.124796 
L 349.2 101.124796 
" clip-path="url(#p6179aa02de)" style="fill: none; stroke-dasharray: 2.96,1.28; stroke-dashoffset: 0; stroke: #b0b0b0; stroke-opacity: 0.5; stroke-width: 0.8"/>
     </g>
     <g id="line2d_22">
      <g>
       <use xlink:href="#md59f03451b" x="54.2" y="101.124796" style="stroke: #000000; stroke-width: 0.8"/>
      </g>
     </g>
     <g id="text_12">
      <!-- 0.50 -->
      <g transform="translate(24.934375 104.924015) scale(0.1 -0.1)">
       <use xlink:href="#DejaVuSans-30"/>
       <use xlink:href="#DejaVuSans-2e" transform="translate(63.623047 0)"/>
       <use xlink:href="#DejaVuSans-35" transform="translate(95.410156 0)"/>
       <use xlink:href="#DejaVuSans-30" transform="translate(159.033203 0)"/>
      </g>
     </g>
    </g>
    <g id="ytick_5">
     <g id="line2d_23">
      <path d="M 54.2 64.687794 
L 349.2 64.687794 
" clip-path="url(#p6179aa02de)" style="fill: none; stroke-dasharray: 2.96,1.28; stroke-dashoffset: 0; stroke: #b0b0b0; stroke-opacity: 0.5; stroke-width: 0.8"/>
     </g>
     <g id="line2d_24">
      <g>
       <use xlink:href="#md59f03451b" x="54.2" y="64.687794" style="stroke: #000000; stroke-width: 0.8"/>
      </g>
     </g>
     <g id="text_13">
      <!-- 0.55 -->
      <g transform="translate(24.934375 68.487013) scale(0.1 -0.1)">
       <use xlink:href="#DejaVuSans-30"/>
       <use xlink:href="#DejaVuSans-2e" transform="translate(63.623047 0)"/>
       <use xlink:href="#DejaVuSans-35" transform="translate(95.410156 0)"/>
       <use xlink:href="#DejaVuSans-35" transform="translate(159.033203 0)"/>
      </g>
     </g>
    </g>
    <g id="ytick_6">
     <g id="line2d_25">
      <path d="M 54.2 28.250793 
L 349.2 28.250793 
" clip-path="url(#p6179aa02de)" style="fill: none; stroke-dasharray: 2.96,1.28; stroke-dashoffset: 0; stroke: #b0b0b0; stroke-opacity: 0.5; stroke-width: 0.8"/>
     </g>
     <g id="line2d_26">
      <g>
       <use xlink:href="#md59f03451b" x="54.2" y="28.250793" style="stroke: #000000; stroke-width: 0.8"/>
      </g>
     </g>
     <g id="text_14">
      <!-- 0.60 -->
      <g transform="translate(24.934375 32.050012) scale(0.1 -0.1)">
       <defs>
        <path id="DejaVuSans-36" d="M 2113 2584 
Q 1688 2584 1439 2293 
Q 1191 2003 1191 1497 
Q 1191 994 1439 701 
Q 1688 409 2113 409 
Q 2538 409 2786 701 
Q 3034 994 3034 1497 
Q 3034 2003 2786 2293 
Q 2538 2584 2113 2584 
z
M 3366 4563 
L 3366 3988 
Q 3128 4100 2886 4159 
Q 2644 4219 2406 4219 
Q 1781 4219 1451 3797 
Q 1122 3375 1075 2522 
Q 1259 2794 1537 2939 
Q 1816 3084 2150 3084 
Q 2853 3084 3261 2657 
Q 3669 2231 3669 1497 
Q 3669 778 3244 343 
Q 2819 -91 2113 -91 
Q 1303 -91 875 529 
Q 447 1150 447 2328 
Q 447 3434 972 4092 
Q 1497 4750 2381 4750 
Q 2619 4750 2861 4703 
Q 3103 4656 3366 4563 
z
" transform="scale(0.015625)"/>
       </defs>
       <use xlink:href="#DejaVuSans-30"/>
       <use xlink:href="#DejaVuSans-2e" transform="translate(63.623047 0)"/>
       <use xlink:href="#DejaVuSans-36" transform="translate(95.410156 0)"/>
       <use xlink:href="#DejaVuSans-30" transform="translate(159.033203 0)"/>
      </g>
     </g>
    </g>
    <g id="text_15">
     <!-- Eve Holevo information -->
     <g transform="translate(18.854688 177.954375) rotate(-90) scale(0.1 -0.1)">
      <defs>
       <path id="DejaVuSans-45" d="M 628 4666 
L 3578 4666 
L 3578 4134 
L 1259 4134 
L 1259 2753 
L 3481 2753 
L 3481 2222 
L 1259 2222 
L 1259 531 
L 3634 531 
L 3634 0 
L 628 0 
L 628 4666 
z
" transform="scale(0.015625)"/>
       <path id="DejaVuSans-76" d="M 191 3500 
L 800 3500 
L 1894 563 
L 2988 3500 
L 3597 3500 
L 2284 0 
L 1503 0 
L 191 3500 
z
" transform="scale(0.015625)"/>
       <path id="DejaVuSans-48" d="M 628 4666 
L 1259 4666 
L 1259 2753 
L 3553 2753 
L 3553 4666 
L 4184 4666 
L 4184 0 
L 3553 0 
L 3553 2222 
L 1259 2222 
L 1259 0 
L 628 0 
L 628 4666 
z
" transform="scale(0.015625)"/>
       <path id="DejaVuSans-6c" d="M 603 4863 
L 1178 4863 
L 1178 0 
L 603 0 
L 603 4863 
z
" transform="scale(0.015625)"/>
       <path id="DejaVuSans-6e" d="M 3513 2113 
L 3513 0 
L 2938 0 
L 2938 2094 
Q 2938 2591 2744 2837 
Q 2550 3084 2163 3084 
Q 1697 3084 1428 2787 
Q 1159 2491 1159 1978 
L 1159 0 
L 581 0 
L 581 3500 
L 1159 3500 
L 1159 2956 
Q 1366 3272 1645 3428 
Q 1925 3584 2291 3584 
Q 2894 3584 3203 3211 
Q 3513 2838 3513 2113 
z
" transform="scale(0.015625)"/>
       <path id="DejaVuSans-66" d="M 2375 4863 
L 2375 4384 
L 1825 4384 
Q 1516 4384 1395 4259 
Q 1275 4134 1275 3809 
L 1275 3500 
L 2222 3500 
L 2222 3053 
L 1275 3053 
L 1275 0 
L 697 0 
L 697 3053 
L 147 3053 
L 147 3500 
L 697 3500 
L 697 3744 
Q 697 4328 969 4595 
Q 1241 4863 1831 4863 
L 2375 4863 
z
" transform="scale(0.015625)"/>
      </defs>
      <use xlink:href="#DejaVuSans-45"/>
      <use xlink:href="#DejaVuSans-76" transform="translate(63.183594 0)"/>
      <use xlink:href="#DejaVuSans-65" transform="translate(122.363281 0)"/>
      <use xlink:href="#DejaVuSans-20" transform="translate(183.886719 0)"/>
      <use xlink:href="#DejaVuSans-48" transform="translate(215.673828 0)"/>
      <use xlink:href="#DejaVuSans-6f" transform="translate(290.869141 0)"/>
      <use xlink:href="#DejaVuSans-6c" transform="translate(352.050781 0)"/>
      <use xlink:href="#DejaVuSans-65" transform="translate(379.833984 0)"/>
      <use xlink:href="#DejaVuSans-76" transform="translate(441.357422 0)"/>
      <use xlink:href="#DejaVuSans-6f" transform="translate(500.537109 0)"/>
      <use xlink:href="#DejaVuSans-20" transform="translate(561.71875 0)"/>
      <use xlink:href="#DejaVuSans-69" transform="translate(593.505859 0)"/>
      <use xlink:href="#DejaVuSans-6e" transform="translate(621.289062 0)"/>
      <use xlink:href="#DejaVuSans-66" transform="translate(684.667969 0)"/>
      <use xlink:href="#DejaVuSans-6f" transform="translate(719.873047 0)"/>
      <use xlink:href="#DejaVuSans-72" transform="translate(781.054688 0)"/>
      <use xlink:href="#DejaVuSans-6d" transform="translate(820.417969 0)"/>
      <use xlink:href="#DejaVuSans-61" transform="translate(917.830078 0)"/>
      <use xlink:href="#DejaVuSans-74" transform="translate(979.109375 0)"/>
      <use xlink:href="#DejaVuSans-69" transform="translate(1018.318359 0)"/>
      <use xlink:href="#DejaVuSans-6f" transform="translate(1046.101562 0)"/>
      <use xlink:href="#DejaVuSans-6e" transform="translate(1107.283203 0)"/>
     </g>
    </g>
   </g>
   <g id="line2d_27">
    <path d="M 67.609091 187.790867 
L 86.764935 200.490358 
L 105.920779 218.165455 
L 125.076623 195.909727 
L 144.232468 178.991724 
L 163.388312 215.001484 
L 182.544156 203.980956 
L 201.7 213.457601 
L 220.855844 210.471832 
L 240.011688 209.985405 
L 259.167532 167.198662 
L 278.323377 214.07018 
L 297.479221 207.374784 
L 316.635065 207.905253 
L 335.790909 149.670909 
" clip-path="url(#p6179aa02de)" style="fill: none; stroke: #ff8c00; stroke-width: 1.5; stroke-linecap: square"/>
    <defs>
     <path id="mb3782b42ce" d="M -2 2 
L 2 -2 
M -2 -2 
L 2 2 
" style="stroke: #ff8c00"/>
    </defs>
    <g clip-path="url(#p6179aa02de)">
     <use xlink:href="#mb3782b42ce" x="67.609091" y="187.790867" style="fill: #ff8c00; stroke: #ff8c00"/>
     <use xlink:href="#mb3782b42ce" x="86.764935" y="200.490358" style="fill: #ff8c00; stroke: #ff8c00"/>
     <use xlink:href="#mb3782b42ce" x="105.920779" y="218.165455" style="fill: #ff8c00; stroke: #ff8c00"/>
     <use xlink:href="#mb3782b42ce" x="125.076623" y="195.909727" style="fill: #ff8c00; stroke: #ff8c00"/>
     <use xlink:href="#mb3782b42ce" x="144.232468" y="178.991724" style="fill: #ff8c00; stroke: #ff8c00"/>
     <use xlink:href="#mb3782b42ce" x="163.388312" y="215.001484" style="fill: #ff8c00; stroke: #ff8c00"/>
     <use xlink:href="#mb3782b42ce" x="182.544156" y="203.980956" style="fill: #ff8c00; stroke: #ff8c00"/>
     <use xlink:href="#mb3782b42ce" x="201.7" y="213.457601" style="fill: #ff8c00; stroke: #ff8c00"/>
     <use xlink:href="#mb3782b42ce" x="220.855844" y="210.471832" style="fill: #ff8c00; stroke: #ff8c00"/>
     <use xlink:href="#mb3782b42ce" x="240.011688" y="209.985405" style="fill: #ff8c00; stroke: #ff8c00"/>
     <use xlink:href="#mb3782b42ce" x="259.167532" y="167.198662" style="fill: #ff8c00; stroke: #ff8c00"/>
     <use xlink:href="#mb3782b42ce" x="278.323377" y="214.07018" style="fill: #ff8c00; stroke: #ff8c00"/>
     <use xlink:href="#mb3782b42ce" x="297.479221" y="207.374784" style="fill: #ff8c00; stroke: #ff8c00"/>
     <use xlink:href="#mb3782b42ce" x="316.635065" y="207.905253" style="fill: #ff8c00; stroke: #ff8c00"/>
     <use xlink:href="#mb3782b42ce" x="335.790909" y="149.670909" style="fill: #ff8c00; stroke: #ff8c00"/>
    </g>
   </g>
   <g id="line2d_28">
    <path d="M 67.609091 162.873164 
L 86.764935 126.94801 
L 105.920779 130.603827 
L 125.076623 156.581515 
L 144.232468 165.0121 
L 163.388312 166.69619 
L 182.544156 173.286315 
L 201.7 138.947463 
L 220.855844 157.079257 
L 240.011688 111.859087 
L 259.167532 150.08929 
L 278.323377 137.254458 
L 297.479221 125.630298 
L 316.635065 145.790841 
L 335.790909 148.566773 
" clip-path="url(#p6179aa02de)" style="fill: none; stroke: #f0e68c; stroke-width: 1.5; stroke-linecap: square"/>
    <defs>
     <path id="m8f522b26a3" d="M 0 2 
C 0.530406 2 1.03916 1.789267 1.414214 1.414214 
C 1.789267 1.03916 2 0.530406 2 0 
C 2 -0.530406 1.789267 -1.03916 1.414214 -1.414214 
C 1.03916 -1.789267 0.530406 -2 0 -2 
C -0.530406 -2 -1.03916 -1.789267 -1.414214 -1.414214 
C -1.789267 -1.03916 -2 -0.530406 -2 0 
C -2 0.530406 -1.789267 1.03916 -1.414214 1.414214 
C -1.03916 1.789267 -0.530406 2 0 2 
z
" style="stroke: #f0e68c"/>
    </defs>
    <g clip-path="url(#p6179aa02de)">
     <use xlink:href="#m8f522b26a3" x="67.609091" y="162.873164" style="fill: #f0e68c; stroke: #f0e68c"/>
     <use xlink:href="#m8f522b26a3" x="86.764935" y="126.94801" style="fill: #f0e68c; stroke: #f0e68c"/>
     <use xlink:href="#m8f522b26a3" x="105.920779" y="130.603827" style="fill: #f0e68c; stroke: #f0e68c"/>
     <use xlink:href="#m8f522b26a3" x="125.076623" y="156.581515" style="fill: #f0e68c; stroke: #f0e68c"/>
     <use xlink:href="#m8f522b26a3" x="144.232468" y="165.0121" style="fill: #f0e68c; stroke: #f0e68c"/>
     <use xlink:href="#m8f522b26a3" x="163.388312" y="166.69619" style="fill: #f0e68c; stroke: #f0e68c"/>
     <use xlink:href="#m8f522b26a3" x="182.544156" y="173.286315" style="fill: #f0e68c; stroke: #f0e68c"/>
     <use xlink:href="#m8f522b26a3" x="201.7" y="138.947463" style="fill: #f0e68c; stroke: #f0e68c"/>
     <use xlink:href="#m8f522b26a3" x="220.855844" y="157.079257" style="fill: #f0e68c; stroke: #f0e68c"/>
     <use xlink:href="#m8f522b26a3" x="240.011688" y="111.859087" style="fill: #f0e68c; stroke: #f0e68c"/>
     <use xlink:href="#m8f522b26a3" x="259.167532" y="150.08929" style="fill: #f0e68c; stroke: #f0e68c"/>
     <use xlink:href="#m8f522b26a3" x="278.323377" y="137.254458" style="fill: #f0e68c; stroke: #f0e68c"/>
     <use xlink:href="#m8f522b26a3" x="297.479221" y="125.630298" style="fill: #f0e68c; stroke: #f0e68c"/>
     <use xlink:href="#m8f522b26a3" x="316.635065" y="145.790841" style="fill: #f0e68c; stroke: #f0e68c"/>
     <use xlink:href="#m8f522b26a3" x="335.790909" y="148.566773" style="fill: #f0e68c; stroke: #f0e68c"/>
    </g>
   </g>
   <g id="line2d_29">
    <path d="M 67.609091 149.348671 
L 86.764935 82.606632 
L 105.920779 98.941715 
L 125.076623 97.234783 
L 144.232468 93.561664 
L 163.388312 88.604246 
L 182.544156 89.711624 
L 201.7 68.480044 
L 220.855844 77.569891 
L 240.011688 104.324157 
L 259.167532 63.379019 
L 278.323377 90.586314 
L 297.479221 78.530406 
L 316.635065 98.997579 
L 335.790909 96.61279 
" clip-path="url(#p6179aa02de)" style="fill: none; stroke: #228b22; stroke-width: 1.5; stroke-linecap: square"/>
    <defs>
     <path id="m6aab76f11f" d="M 0 -2 
L -2 2 
L 2 2 
z
" style="stroke: #228b22; stroke-linejoin: miter"/>
    </defs>
    <g clip-path="url(#p6179aa02de)">
     <use xlink:href="#m6aab76f11f" x="67.609091" y="149.348671" style="fill: #228b22; stroke: #228b22; stroke-linejoin: miter"/>
     <use xlink:href="#m6aab76f11f" x="86.764935" y="82.606632" style="fill: #228b22; stroke: #228b22; stroke-linejoin: miter"/>
     <use xlink:href="#m6aab76f11f" x="105.920779" y="98.941715" style="fill: #228b22; stroke: #228b22; stroke-linejoin: miter"/>
     <use xlink:href="#m6aab76f11f" x="125.076623" y="97.234783" style="fill: #228b22; stroke: #228b22; stroke-linejoin: miter"/>
     <use xlink:href="#m6aab76f11f" x="144.232468" y="93.561664" style="fill: #228b22; stroke: #228b22; stroke-linejoin: miter"/>
     <use xlink:href="#m6aab76f11f" x="163.388312" y="88.604246" style="fill: #228b22; stroke: #228b22; stroke-linejoin: miter"/>
     <use xlink:href="#m6aab76f11f" x="182.544156" y="89.711624" style="fill: #228b22; stroke: #228b22; stroke-linejoin: miter"/>
     <use xlink:href="#m6aab76f11f" x="201.7" y="68.480044" style="fill: #228b22; stroke: #228b22; stroke-linejoin: miter"/>
     <use xlink:href="#m6aab76f11f" x="220.855844" y="77.569891" style="fill: #228b22; stroke: #228b22; stroke-linejoin: miter"/>
     <use xlink:href="#m6aab76f11f" x="240.011688" y="104.324157" style="fill: #228b22; stroke: #228b22; stroke-linejoin: miter"/>
     <use xlink:href="#m6aab76f11f" x="259.167532" y="63.379019" style="fill: #228b22; stroke: #228b22; stroke-linejoin: miter"/>
     <use xlink:href="#m6aab76f11f" x="278.323377" y="90.586314" style="fill: #228b22; stroke: #228b22; stroke-linejoin: miter"/>
     <use xlink:href="#m6aab76f11f" x="297.479221" y="78.530406" style="fill: #228b22; stroke: #228b22; stroke-linejoin: miter"/>
     <use xlink:href="#m6aab76f11f" x="316.635065" y="98.997579" style="fill: #228b22; stroke: #228b22; stroke-linejoin: miter"/>
     <use xlink:href="#m6aab76f11f" x="335.790909" y="96.61279" style="fill: #228b22; stroke: #228b22; stroke-linejoin: miter"/>
    </g>
   </g>
   <g id="line2d_30">
    <path d="M 67.609091 33.878018 
L 86.764935 30.408832 
L 105.920779 52.118197 
L 125.076623 46.551119 
L 144.232468 30.161907 
L 163.388312 78.127865 
L 182.544156 20.674545 
L 201.7 40.335609 
L 220.855844 31.349405 
L 240.011688 49.631427 
L 259.167532 33.323294 
L 278.323377 42.020537 
L 297.479221 46.819174 
L 316.635065 46.588301 
L 335.790909 24.640402 
" clip-path="url(#p6179aa02de)" style="fill: none; stroke: #4169e1; stroke-width: 1.5; stroke-linecap: square"/>
    <defs>
     <path id="m9508c71efc" d="M -0.666667 2 
L 0.666667 2 
L 0.666667 0.666667 
L 2 0.666667 
L 2 -0.666667 
L 0.666667 -0.666667 
L 0.666667 -2 
L -0.666667 -2 
L -0.666667 -0.666667 
L -2 -0.666667 
L -2 0.666667 
L -0.666667 0.666667 
z
" style="stroke: #4169e1; stroke-linejoin: miter"/>
    </defs>
    <g clip-path="url(#p6179aa02de)">
     <use xlink:href="#m9508c71efc" x="67.609091" y="33.878018" style="fill: #4169e1; stroke: #4169e1; stroke-linejoin: miter"/>
     <use xlink:href="#m9508c71efc" x="86.764935" y="30.408832" style="fill: #4169e1; stroke: #4169e1; stroke-linejoin: miter"/>
     <use xlink:href="#m9508c71efc" x="105.920779" y="52.118197" style="fill: #4169e1; stroke: #4169e1; stroke-linejoin: miter"/>
     <use xlink:href="#m9508c71efc" x="125.076623" y="46.551119" style="fill: #4169e1; stroke: #4169e1; stroke-linejoin: miter"/>
     <use xlink:href="#m9508c71efc" x="144.232468" y="30.161907" style="fill: #4169e1; stroke: #4169e1; stroke-linejoin: miter"/>
     <use xlink:href="#m9508c71efc" x="163.388312" y="78.127865" style="fill: #4169e1; stroke: #4169e1; stroke-linejoin: miter"/>
     <use xlink:href="#m9508c71efc" x="182.544156" y="20.674545" style="fill: #4169e1; stroke: #4169e1; stroke-linejoin: miter"/>
     <use xlink:href="#m9508c71efc" x="201.7" y="40.335609" style="fill: #4169e1; stroke: #4169e1; stroke-linejoin: miter"/>
     <use xlink:href="#m9508c71efc" x="220.855844" y="31.349405" style="fill: #4169e1; stroke: #4169e1; stroke-linejoin: miter"/>
     <use xlink:href="#m9508c71efc" x="240.011688" y="49.631427" style="fill: #4169e1; stroke: #4169e1; stroke-linejoin: miter"/>
     <use xlink:href="#m9508c71efc" x="259.167532" y="33.323294" style="fill: #4169e1; stroke: #4169e1; stroke-linejoin: miter"/>
     <use xlink:href="#m9508c71efc" x="278.323377" y="42.020537" style="fill: #4169e1; stroke: #4169e1; stroke-linejoin: miter"/>
     <use xlink:href="#m9508c71efc" x="297.479221" y="46.819174" style="fill: #4169e1; stroke: #4169e1; stroke-linejoin: miter"/>
     <use xlink:href="#m9508c71efc" x="316.635065" y="46.588301" style="fill: #4169e1; stroke: #4169e1; stroke-linejoin: miter"/>
     <use xlink:href="#m9508c71efc" x="335.790909" y="24.640402" style="fill: #4169e1; stroke: #4169e1; stroke-linejoin: miter"/>
    </g>
   </g>
   <g id="patch_3">
    <path d="M 54.2 228.04 
L 54.2 10.8 
" style="fill: none; stroke: #000000; stroke-width: 0.8; stroke-linejoin: miter; stroke-linecap: square"/>
   </g>
   <g id="patch_4">
    <path d="M 349.2 228.04 
L 349.2 10.8 
" style="fill: none; stroke: #000000; stroke-width: 0.8; stroke-linejoin: miter; stroke-linecap: square"/>
   </g>
   <g id="patch_5">
    <path d="M 54.2 228.04 
L 349.2 228.04 
" style="fill: none; stroke: #000000; stroke-width: 0.8; stroke-linejoin: miter; stroke-linecap: square"/>
   </g>
   <g id="patch_6">
    <path d="M 54.2 10.8 
L 349.2 10.8 
" style="fill: none; stroke: #000000; stroke-width: 0.8; stroke-linejoin: miter; stroke-linecap: square"/>
   </g>
   <g id="legend_1">
    <g id="patch_7">
     <path d="M 267.704687 223.04 
L 342.2 223.04 
Q 344.2 223.04 344.2 221.04 
L 344.2 163.3275 
Q 344.2 161.3275 342.2 161.3275 
L 267.704687 161.3275 
Q 265.704687 161.3275 265.704687 163.3275 
L 265.704687 221.04 
Q 265.704687 223.04 267.704687 223.04 
z
" style="fill: #ffffff; opacity: 0.8; stroke: #cccccc; stroke-linejoin: miter"/>
    </g>
    <g id="line2d_31">
     <path d="M 269.704687 169.425937 
L 279.704687 169.425937 
L 289.704687 169.425937 
" style="fill: none; stroke: #ff8c00; stroke-width: 1.5; stroke-linecap: square"/>
     <g>
      <use xlink:href="#mb3782b42ce" x="279.704687" y="169.425937" style="fill: #ff8c00; stroke: #ff8c00"/>
     </g>
    </g>
    <g id="text_16">
     <!-- 3 angles -->
     <g transform="translate(297.704687 172.925937) scale(0.1 -0.1)">
      <defs>
       <path id="DejaVuSans-67" d="M 2906 1791 
Q 2906 2416 2648 2759 
Q 2391 3103 1925 3103 
Q 1463 3103 1205 2759 
Q 947 2416 947 1791 
Q 947 1169 1205 825 
Q 1463 481 1925 481 
Q 2391 481 2648 825 
Q 2906 1169 2906 1791 
z
M 3481 434 
Q 3481 -459 3084 -895 
Q 2688 -1331 1869 -1331 
Q 1566 -1331 1297 -1286 
Q 1028 -1241 775 -1147 
L 775 -588 
Q 1028 -725 1275 -790 
Q 1522 -856 1778 -856 
Q 2344 -856 2625 -561 
Q 2906 -266 2906 331 
L 2906 616 
Q 2728 306 2450 153 
Q 2172 0 1784 0 
Q 1141 0 747 490 
Q 353 981 353 1791 
Q 353 2603 747 3093 
Q 1141 3584 1784 3584 
Q 2172 3584 2450 3431 
Q 2728 3278 2906 2969 
L 2906 3500 
L 3481 3500 
L 3481 434 
z
" transform="scale(0.015625)"/>
      </defs>
      <use xlink:href="#DejaVuSans-33"/>
      <use xlink:href="#DejaVuSans-20" transform="translate(63.623047 0)"/>
      <use xlink:href="#DejaVuSans-61" transform="translate(95.410156 0)"/>
      <use xlink:href="#DejaVuSans-6e" transform="translate(156.689453 0)"/>
      <use xlink:href="#DejaVuSans-67" transform="translate(220.068359 0)"/>
      <use xlink:href="#DejaVuSans-6c" transform="translate(283.544922 0)"/>
      <use xlink:href="#DejaVuSans-65" transform="translate(311.328125 0)"/>
      <use xlink:href="#DejaVuSans-73" transform="translate(372.851562 0)"/>
     </g>
    </g>
    <g id="line2d_32">
     <path d="M 269.704687 184.104062 
L 279.704687 184.104062 
L 289.704687 184.104062 
" style="fill: none; stroke: #f0e68c; stroke-width: 1.5; stroke-linecap: square"/>
     <g>
      <use xlink:href="#m8f522b26a3" x="279.704687" y="184.104062" style="fill: #f0e68c; stroke: #f0e68c"/>
     </g>
    </g>
    <g id="text_17">
     <!-- 4 angles -->
     <g transform="translate(297.704687 187.604062) scale(0.1 -0.1)">
      <use xlink:href="#DejaVuSans-34"/>
      <use xlink:href="#DejaVuSans-20" transform="translate(63.623047 0)"/>
      <use xlink:href="#DejaVuSans-61" transform="translate(95.410156 0)"/>
      <use xlink:href="#DejaVuSans-6e" transform="translate(156.689453 0)"/>
      <use xlink:href="#DejaVuSans-67" transform="translate(220.068359 0)"/>
      <use xlink:href="#DejaVuSans-6c" transform="translate(283.544922 0)"/>
      <use xlink:href="#DejaVuSans-65" transform="translate(311.328125 0)"/>
      <use xlink:href="#DejaVuSans-73" transform="translate(372.851562 0)"/>
     </g>
    </g>
    <g id="line2d_33">
     <path d="M 269.704687 198.782187 
L 279.704687 198.782187 
L 289.704687 198.782187 
" style="fill: none; stroke: #228b22; stroke-width: 1.5; stroke-linecap: square"/>
     <g>
      <use xlink:href="#m6aab76f11f" x="279.704687" y="198.782187" style="fill: #228b22; stroke: #228b22; stroke-linejoin: miter"/>
     </g>
    </g>
    <g id="text_18">
     <!-- 5 angles -->
     <g transform="translate(297.704687 202.282187) scale(0.1 -0.1)">
      <use xlink:href="#DejaVuSans-35"/>
      <use xlink:href="#DejaVuSans-20" transform="translate(63.623047 0)"/>
      <use xlink:href="#DejaVuSans-61" transform="translate(95.410156 0)"/>
      <use xlink:href="#DejaVuSans-6e" transform="translate(156.689453 0)"/>
      <use xlink:href="#DejaVuSans-67" transform="translate(220.068359 0)"/>
      <use xlink:href="#DejaVuSans-6c" transform="translate(283.544922 0)"/>
      <use xlink:href="#DejaVuSans-65" transform="translate(311.328125 0)"/>
      <use xlink:href="#DejaVuSans-73" transform="translate(372.851562 0)"/>
     </g>
    </g>
    <g id="line2d_34">
     <path d="M 269.704687 213.460312 
L 279.704687 213.460312 
L 289.704687 213.460312 
" style="fill: none; stroke: #4169e1; stroke-width: 1.5; stroke-linecap: square"/>
     <g>
      <use xlink:href="#m9508c71efc" x="279.704687" y="213.460312" style="fill: #4169e1; stroke: #4169e1; stroke-linejoin: miter"/>
     </g>
    </g>
    <g id="text_19">
     <!-- 6 angles -->
     <g transform="translate(297.704687 216.960312) scale(0.1 -0.1)">
      <use xlink:href="#DejaVuSans-36"/>
      <use xlink:href="#DejaVuSans-20" transform="translate(63.623047 0)"/>
      <use xlink:href="#DejaVuSans-61" transform="translate(95.410156 0)"/>
      <use xlink:href="#DejaVuSans-6e" transform="translate(156.689453 0)"/>
      <use xlink:href="#DejaVuSans-67" transform="translate(220.068359 0)"/>
      <use xlink:href="#DejaVuSans-6c" transform="translate(283.544922 0)"/>
      <use xlink:href="#DejaVuSans-65" transform="translate(311.328125 0)"/>
      <use xlink:href="#DejaVuSans-73" transform="translate(372.851562 0)"/>
     </g>
    </g>
   </g>
  </g>
 </g>
 <defs>
  <clipPath id="p6179aa02de">
   <rect x="54.2" y="10.8" width="295" height="217.24"/>
  </clipPath>
 </defs>
</svg>
