<?xml version="1.0" encoding="utf-8" standalone="no"?>
<!DOCTYPE svg PUBLIC "-//W3C//DTD SVG 1.1//EN"
  "http://www.w3.org/Graphics/SVG/1.1/DTD/svg11.dtd">
<svg xmlns:xlink="http://www.w3.org/1999/xlink" width="360pt" height="270pt" viewBox="0 0 360 270" xmlns="http://www.w3.org/2000/svg" version="1.1">
 <metadata>
  <rdf:RDF xmlns:dc="http://purl.org/dc/elements/1.1/" xmlns:cc="http://creativecommons.org/ns#" xmlns:rdf="http://www.w3.org/1999/02/22-rdf-syntax-ns#">
   <cc:Work>
    <dc:type rdf:resource="http://purl.org/dc/dcmitype/StillImage"/>
    <dc:date>2026-01-11T04:01:41.761477</dc:date>
    <dc:format>image/svg+xml</dc:format>
    <dc:creator>
     <cc:Agent>
      <dc:title>Matplotlib v3.10.8, https://matplotlib.org/</dc:title>
     </cc:Agent>
    </dc:creator>
   </cc:Work>
  </rdf:RDF>
 </metadata>
 <defs>
  <style type="text/css">*{stroke-linejoin: round; stroke-linecap: butt}</style>
 </defs>
 <g id="figure_1">
  <g id="patch_1">
   <path d="M 0 270 
L 360 270 
L 360 0 
L 0 0 
z
" style="fill: #ffffff"/>
  </g>
  <g id="axes_1">
   <g id="patch_2">
    <path d="M 54.2 225.16 
L 349.2 225.16 
L 349.2 14.76 
L 54.2 14.76 
z
" style="fill: #ffffff"/>
   </g>
   <g id="matplotlib.axis_1">
    <g id="xtick_1">
     <g id="line2d_1">
      <path d="M 67.609091 225.16 
L 67.609091 14.76 
" clip-path="url(#pb4fe2d8ed6)" style="fill: none; stroke-dasharray: 2.96,1.28; stroke-dashoffset: 0; stroke: #b0b0b0; stroke-opacity: 0.5; stroke-width: 0.8"/>
     </g>
     <g id="line2d_2">
      <defs>
       <path id="m1caec7c72a" d="M 0 0 
L 0 3.5 
" style="stroke: #000000; stroke-width: 0.8"/>
      </defs>
      <g>
       <use xlink:href="#m1caec7c72a" x="67.609091" y="225.16" style="stroke: #000000; stroke-width: 0.8"/>
      </g>
     </g>
     <g id="text_1">
      <!-- 0.00 -->
      <g transform="translate(56.476278 239.758438) scale(0.1 -0.1)">
       <defs>
        <path id="DejaVuSans-30" d="M 2034 4250 
Q 1547 4250 1301 3770 
Q 1056 3291 1056 2328 
Q 1056 1369 1301 889 
Q 1547 409 2034 409 
Q 2525 409 2770 889 
Q 3016 1369 3016 2328 
Q 3016 3291 2770 3770 
Q 2525 4250 2034 4250 
z
M 2034 4750 
Q 2819 4750 3233 4129 
Q 3647 3509 3647 2328 
Q 3647 1150 3233 529 
Q 2819 -91 2034 -91 
Q 1250 -91 836 529 
Q 422 1150 422 2328 
Q 422 3509 836 4129 
Q 1250 4750 2034 4750 
z
" transform="scale(0.015625)"/>
        <path id="DejaVuSans-2e" d="M 684 794 
L 1344 794 
L 1344 0 
L 684 0 
L 684 794 
z
" transform="scale(0.015625)"/>
       </defs>
       <use xlink:href="#DejaVuSans-30"/>
       <use xlink:href="#DejaVuSans-2e" transform="translate(63.623047 0)"/>
       <use xlink:href="#DejaVuSans-30" transform="translate(95.410156 0)"/>
       <use xlink:href="#DejaVuSans-30" transform="translate(159.033203 0)"/>
      </g>
     </g>
    </g>
    <g id="xtick_2">
     <g id="line2d_3">
      <path d="M 157.00303 225.16 
L 157.00303 14.76 
" clip-path="url(#pb4fe2d8ed6)" style="fill: none; stroke-dasharray: 2.96,1.28; stroke-dashoffset: 0; stroke: #b0b0b0; stroke-opacity: 0.5; stroke-width: 0.8"/>
     </g>
     <g id="line2d_4">
      <g>
       <use xlink:href="#m1caec7c72a" x="157.00303" y="225.16" style="stroke: #000000; stroke-width: 0.8"/>
      </g>
     </g>
     <g id="text_2">
      <!-- 0.05 -->
      <g transform="translate(145.870218 239.758438) scale(0.1 -0.1)">
       <defs>
        <path id="DejaVuSans-35" d="M 691 4666 
L 3169 4666 
L 3169 4134 
L 1269 4134 
L 1269 2991 
Q 1406 3038 1543 3061 
Q 1681 3084 1819 3084 
Q 2600 3084 3056 2656 
Q 3513 2228 3513 1497 
Q 3513 744 3044 326 
Q 2575 -91 1722 -91 
Q 1428 -91 1123 -41 
Q 819 9 494 109 
L 494 744 
Q 775 591 1075 516 
Q 1375 441 1709 441 
Q 2250 441 2565 725 
Q 2881 1009 2881 1497 
Q 2881 1984 2565 2268 
Q 2250 2553 1709 2553 
Q 1456 2553 1204 2497 
Q 953 2441 691 2322 
L 691 4666 
z
" transform="scale(0.015625)"/>
       </defs>
       <use xlink:href="#DejaVuSans-30"/>
       <use xlink:href="#DejaVuSans-2e" transform="translate(63.623047 0)"/>
       <use xlink:href="#DejaVuSans-30" transform="translate(95.410156 0)"/>
       <use xlink:href="#DejaVuSans-35" transform="translate(159.033203 0)"/>
      </g>
     </g>
    </g>
    <g id="xtick_3">
     <g id="line2d_5">
      <path d="M 246.39697 225.16 
L 246.39697 14.76 
" clip-path="url(#pb4fe2d8ed6)" style="fill: none; stroke-dasharray: 2.96,1.28; stroke-dashoffset: 0; stroke: #b0b0b0; stroke-opacity: 0.5; stroke-width: 0.8"/>
     </g>
     <g id="line2d_6">
      <g>
       <use xlink:href="#m1caec7c72a" x="246.39697" y="225.16" style="stroke: #000000; stroke-width: 0.8"/>
      </g>
     </g>
     <g id="text_3">
      <!-- 0.10 -->
      <g transform="translate(235.264157 239.758438) scale(0.1 -0.1)">
       <defs>
        <path id="DejaVuSans-31" d="M 794 531 
L 1825 531 
L 1825 4091 
L 703 3866 
L 703 4441 
L 1819 4666 
L 2450 4666 
L 2450 531 
L 3481 531 
L 3481 0 
L 794 0 
L 794 531 
z
" transform="scale(0.015625)"/>
       </defs>
       <use xlink:href="#DejaVuSans-30"/>
       <use xlink:href="#DejaVuSans-2e" transform="translate(63.623047 0)"/>
       <use xlink:href="#DejaVuSans-31" transform="translate(95.410156 0)"/>
       <use xlink:href="#DejaVuSans-30" transform="translate(159.033203 0)"/>
      </g>
     </g>
    </g>
    <g id="xtick_4">
     <g id="line2d_7">
      <path d="M 335.790909 225.16 
L 335.790909 14.76 
" clip-path="url(#pb4fe2d8ed6)" style="fill: none; stroke-dasharray: 2.96,1.28; stroke-dashoffset: 0; stroke: #b0b0b0; stroke-opacity: 0.5; stroke-width: 0.8"/>
     </g>
     <g id="line2d_8">
      <g>
       <use xlink:href="#m1caec7c72a" x="335.790909" y="225.16" style="stroke: #000000; stroke-width: 0.8"/>
      </g>
     </g>
     <g id="text_4">
      <!-- 0.15 -->
      <g transform="translate(324.658097 239.758438) scale(0.1 -0.1)">
       <use xlink:href="#DejaVuSans-30"/>
       <use xlink:href="#DejaVuSans-2e" transform="translate(63.623047 0)"/>
       <use xlink:href="#DejaVuSans-31" transform="translate(95.410156 0)"/>
       <use xlink:href="#DejaVuSans-35" transform="translate(159.033203 0)"/>
      </g>
     </g>
    </g>
    <g id="text_5">
     <!-- dark count error rate ($p_{dark}$) -->
     <g transform="translate(132.5 253.438125) scale(0.1 -0.1)">
      <defs>
       <path id="DejaVuSans-64" d="M 2906 2969 
L 2906 4863 
L 3481 4863 
L 3481 0 
L 2906 0 
L 2906 525 
Q 2725 213 2448 61 
Q 2172 -91 1784 -91 
Q 1150 -91 751 415 
Q 353 922 353 1747 
Q 353 2572 751 3078 
Q 1150 3584 1784 3584 
Q 2172 3584 2448 3432 
Q 2725 3281 2906 2969 
z
M 947 1747 
Q 947 1113 1208 752 
Q 1469 391 1925 391 
Q 2381 391 2643 752 
Q 2906 1113 2906 1747 
Q 2906 2381 2643 2742 
Q 2381 3103 1925 3103 
Q 1469 3103 1208 2742 
Q 947 2381 947 1747 
z
" transform="scale(0.015625)"/>
       <path id="DejaVuSans-61" d="M 2194 1759 
Q 1497 1759 1228 1600 
Q 959 1441 959 1056 
Q 959 750 1161 570 
Q 1363 391 1709 391 
Q 2188 391 2477 730 
Q 2766 1069 2766 1631 
L 2766 1759 
L 2194 1759 
z
M 3341 1997 
L 3341 0 
L 2766 0 
L 2766 531 
Q 2569 213 2275 61 
Q 1981 -91 1556 -91 
Q 1019 -91 701 211 
Q 384 513 384 1019 
Q 384 1609 779 1909 
Q 1175 2209 1959 2209 
L 2766 2209 
L 2766 2266 
Q 2766 2663 2505 2880 
Q 2244 3097 1772 3097 
Q 1472 3097 1187 3025 
Q 903 2953 641 2809 
L 641 3341 
Q 956 3463 1253 3523 
Q 1550 3584 1831 3584 
Q 2591 3584 2966 3190 
Q 3341 2797 3341 1997 
z
" transform="scale(0.015625)"/>
       <path id="DejaVuSans-72" d="M 2631 2963 
Q 2534 3019 2420 3045 
Q 2306 3072 2169 3072 
Q 1681 3072 1420 2755 
Q 1159 2438 1159 1844 
L 1159 0 
L 581 0 
L 581 3500 
L 1159 3500 
L 1159 2956 
Q 1341 3275 1631 3429 
Q 1922 3584 2338 3584 
Q 2397 3584 2469 3576 
Q 2541 3569 2628 3553 
L 2631 2963 
z
" transform="scale(0.015625)"/>
       <path id="DejaVuSans-6b" d="M 581 4863 
L 1159 4863 
L 1159 1991 
L 2875 3500 
L 3609 3500 
L 1753 1863 
L 3688 0 
L 2938 0 
L 1159 1709 
L 1159 0 
L 581 0 
L 581 4863 
z
" transform="scale(0.015625)"/>
       <path id="DejaVuSans-20" transform="scale(0.015625)"/>
       <path id="DejaVuSans-63" d="M 3122 3366 
L 3122 2828 
Q 2878 2963 2633 3030 
Q 2388 3097 2138 3097 
Q 1578 3097 1268 2742 
Q 959 2388 959 1747 
Q 959 1106 1268 751 
Q 1578 397 2138 397 
Q 2388 397 2633 464 
Q 2878 531 3122 666 
L 3122 134 
Q 2881 22 2623 -34 
Q 2366 -91 2075 -91 
Q 1284 -91 818 406 
Q 353 903 353 1747 
Q 353 2603 823 3093 
Q 1294 3584 2113 3584 
Q 2378 3584 2631 3529 
Q 2884 3475 3122 3366 
z
" transform="scale(0.015625)"/>
       <path id="DejaVuSans-6f" d="M 1959 3097 
Q 1497 3097 1228 2736 
Q 959 2375 959 1747 
Q 959 1119 1226 758 
Q 1494 397 1959 397 
Q 2419 397 2687 759 
Q 2956 1122 2956 1747 
Q 2956 2369 2687 2733 
Q 2419 3097 1959 3097 
z
M 1959 3584 
Q 2709 3584 3137 3096 
Q 3566 2609 3566 1747 
Q 3566 888 3137 398 
Q 2709 -91 1959 -91 
Q 1206 -91 779 398 
Q 353 888 353 1747 
Q 353 2609 779 3096 
Q 1206 3584 1959 3584 
z
" transform="scale(0.015625)"/>
       <path id="DejaVuSans-75" d="M 544 1381 
L 544 3500 
L 1119 3500 
L 1119 1403 
Q 1119 906 1312 657 
Q 1506 409 1894 409 
Q 2359 409 2629 706 
Q 2900 1003 2900 1516 
L 2900 3500 
L 3475 3500 
L 3475 0 
L 2900 0 
L 2900 538 
Q 2691 219 2414 64 
Q 2138 -91 1772 -91 
Q 1169 -91 856 284 
Q 544 659 544 1381 
z
M 1991 3584 
L 1991 3584 
z
" transform="scale(0.015625)"/>
       <path id="DejaVuSans-6e" d="M 3513 2113 
L 3513 0 
L 2938 0 
L 2938 2094 
Q 2938 2591 2744 2837 
Q 2550 3084 2163 3084 
Q 1697 3084 1428 2787 
Q 1159 2491 1159 1978 
L 1159 0 
L 581 0 
L 581 3500 
L 1159 3500 
L 1159 2956 
Q 1366 3272 1645 3428 
Q 1925 3584 2291 3584 
Q 2894 3584 3203 3211 
Q 3513 2838 3513 2113 
z
" transform="scale(0.015625)"/>
       <path id="DejaVuSans-74" d="M 1172 4494 
L 1172 3500 
L 2356 3500 
L 2356 3053 
L 1172 3053 
L 1172 1153 
Q 1172 725 1289 603 
Q 1406 481 1766 481 
L 2356 481 
L 2356 0 
L 1766 0 
Q 1100 0 847 248 
Q 594 497 594 1153 
L 594 3053 
L 172 3053 
L 172 3500 
L 594 3500 
L 594 4494 
L 1172 4494 
z
" transform="scale(0.015625)"/>
       <path id="DejaVuSans-65" d="M 3597 1894 
L 3597 1613 
L 953 1613 
Q 991 1019 1311 708 
Q 1631 397 2203 397 
Q 2534 397 2845 478 
Q 3156 559 3463 722 
L 3463 178 
Q 3153 47 2828 -22 
Q 2503 -91 2169 -91 
Q 1331 -91 842 396 
Q 353 884 353 1716 
Q 353 2575 817 3079 
Q 1281 3584 2069 3584 
Q 2775 3584 3186 3129 
Q 3597 2675 3597 1894 
z
M 3022 2063 
Q 3016 2534 2758 2815 
Q 2500 3097 2075 3097 
Q 1594 3097 1305 2825 
Q 1016 2553 972 2059 
L 3022 2063 
z
" transform="scale(0.015625)"/>
       <path id="DejaVuSans-28" d="M 1984 4856 
Q 1566 4138 1362 3434 
Q 1159 2731 1159 2009 
Q 1159 1288 1364 580 
Q 1569 -128 1984 -844 
L 1484 -844 
Q 1016 -109 783 600 
Q 550 1309 550 2009 
Q 550 2706 781 3412 
Q 1013 4119 1484 4856 
L 1984 4856 
z
" transform="scale(0.015625)"/>
       <path id="DejaVuSans-Oblique-70" d="M 3175 2156 
Q 3175 2616 2975 2859 
Q 2775 3103 2400 3103 
Q 2144 3103 1911 2972 
Q 1678 2841 1497 2591 
Q 1319 2344 1212 1994 
Q 1106 1644 1106 1300 
Q 1106 863 1306 627 
Q 1506 391 1875 391 
Q 2147 391 2380 519 
Q 2613 647 2778 891 
Q 2956 1147 3065 1494 
Q 3175 1841 3175 2156 
z
M 1394 2969 
Q 1625 3272 1939 3428 
Q 2253 3584 2638 3584 
Q 3175 3584 3472 3232 
Q 3769 2881 3769 2247 
Q 3769 1728 3584 1258 
Q 3400 788 3053 416 
Q 2822 169 2531 39 
Q 2241 -91 1919 -91 
Q 1547 -91 1294 64 
Q 1041 219 916 525 
L 556 -1331 
L -19 -1331 
L 922 3500 
L 1497 3500 
L 1394 2969 
z
" transform="scale(0.015625)"/>
       <path id="DejaVuSans-Oblique-64" d="M 2675 525 
Q 2444 222 2128 65 
Q 1813 -91 1428 -91 
Q 903 -91 598 267 
Q 294 625 294 1247 
Q 294 1766 478 2236 
Q 663 2706 1013 3078 
Q 1244 3325 1534 3454 
Q 1825 3584 2144 3584 
Q 2481 3584 2739 3421 
Q 2997 3259 3138 2956 
L 3513 4863 
L 4091 4863 
L 3144 0 
L 2566 0 
L 2675 525 
z
M 891 1350 
Q 891 897 1095 644 
Q 1300 391 1663 391 
Q 1931 391 2161 520 
Q 2391 650 2566 903 
Q 2750 1166 2856 1509 
Q 2963 1853 2963 2188 
Q 2963 2622 2758 2865 
Q 2553 3109 2194 3109 
Q 1922 3109 1687 2981 
Q 1453 2853 1288 2613 
Q 1106 2353 998 2009 
Q 891 1666 891 1350 
z
" transform="scale(0.015625)"/>
       <path id="DejaVuSans-Oblique-61" d="M 3438 1997 
L 3047 0 
L 2472 0 
L 2578 531 
Q 2325 219 2001 64 
Q 1678 -91 1281 -91 
Q 834 -91 548 182 
Q 263 456 263 884 
Q 263 1497 752 1853 
Q 1241 2209 2100 2209 
L 2900 2209 
L 2931 2363 
Q 2938 2388 2941 2417 
Q 2944 2447 2944 2509 
Q 2944 2788 2717 2942 
Q 2491 3097 2081 3097 
Q 1800 3097 1504 3025 
Q 1209 2953 897 2809 
L 997 3341 
Q 1322 3463 1633 3523 
Q 1944 3584 2234 3584 
Q 2853 3584 3176 3315 
Q 3500 3047 3500 2534 
Q 3500 2431 3484 2292 
Q 3469 2153 3438 1997 
z
M 2816 1759 
L 2241 1759 
Q 1534 1759 1195 1570 
Q 856 1381 856 984 
Q 856 709 1029 553 
Q 1203 397 1509 397 
Q 1978 397 2328 733 
Q 2678 1069 2791 1631 
L 2816 1759 
z
" transform="scale(0.015625)"/>
       <path id="DejaVuSans-Oblique-72" d="M 2853 2969 
Q 2766 3016 2653 3041 
Q 2541 3066 2413 3066 
Q 1953 3066 1609 2717 
Q 1266 2369 1153 1784 
L 800 0 
L 225 0 
L 909 3500 
L 1484 3500 
L 1375 2956 
Q 1603 3259 1920 3421 
Q 2238 3584 2597 3584 
Q 2691 3584 2781 3573 
Q 2872 3563 2963 3538 
L 2853 2969 
z
" transform="scale(0.015625)"/>
       <path id="DejaVuSans-Oblique-6b" d="M 1172 4863 
L 1747 4863 
L 1197 2028 
L 3169 3500 
L 3916 3500 
L 1716 1825 
L 3322 0 
L 2625 0 
L 1131 1709 
L 800 0 
L 225 0 
L 1172 4863 
z
" transform="scale(0.015625)"/>
       <path id="DejaVuSans-29" d="M 513 4856 
L 1013 4856 
Q 1481 4119 1714 3412 
Q 1947 2706 1947 2009 
Q 1947 1309 1714 600 
Q 1481 -109 1013 -844 
L 513 -844 
Q 928 -128 1133 580 
Q 1338 1288 1338 2009 
Q 1338 2731 1133 3434 
Q 928 4138 513 4856 
z
" transform="scale(0.015625)"/>
      </defs>
      <use xlink:href="#DejaVuSans-64" transform="translate(0 0.015625)"/>
      <use xlink:href="#DejaVuSans-61" transform="translate(63.476562 0.015625)"/>
      <use xlink:href="#DejaVuSans-72" transform="translate(124.755859 0.015625)"/>
      <use xlink:href="#DejaVuSans-6b" transform="translate(165.869141 0.015625)"/>
      <use xlink:href="#DejaVuSans-20" transform="translate(223.779297 0.015625)"/>
      <use xlink:href="#DejaVuSans-63" transform="translate(255.566406 0.015625)"/>
      <use xlink:href="#DejaVuSans-6f" transform="translate(310.546875 0.015625)"/>
      <use xlink:href="#DejaVuSans-75" transform="translate(371.728516 0.015625)"/>
      <use xlink:href="#DejaVuSans-6e" transform="translate(435.107422 0.015625)"/>
      <use xlink:href="#DejaVuSans-74" transform="translate(498.486328 0.015625)"/>
      <use xlink:href="#DejaVuSans-20" transform="translate(537.695312 0.015625)"/>
      <use xlink:href="#DejaVuSans-65" transform="translate(569.482422 0.015625)"/>
      <use xlink:href="#DejaVuSans-72" transform="translate(631.005859 0.015625)"/>
      <use xlink:href="#DejaVuSans-72" transform="translate(672.119141 0.015625)"/>
      <use xlink:href="#DejaVuSans-6f" transform="translate(713.232422 0.015625)"/>
      <use xlink:href="#DejaVuSans-72" transform="translate(774.414062 0.015625)"/>
      <use xlink:href="#DejaVuSans-20" transform="translate(815.527344 0.015625)"/>
      <use xlink:href="#DejaVuSans-72" transform="translate(847.314453 0.015625)"/>
      <use xlink:href="#DejaVuSans-61" transform="translate(888.427734 0.015625)"/>
      <use xlink:href="#DejaVuSans-74" transform="translate(949.707031 0.015625)"/>
      <use xlink:href="#DejaVuSans-65" transform="translate(988.916016 0.015625)"/>
      <use xlink:href="#DejaVuSans-20" transform="translate(1050.439453 0.015625)"/>
      <use xlink:href="#DejaVuSans-28" transform="translate(1082.226562 0.015625)"/>
      <use xlink:href="#DejaVuSans-Oblique-70" transform="translate(1121.240234 0.015625)"/>
      <use xlink:href="#DejaVuSans-Oblique-64" transform="translate(1184.716797 -16.390625) scale(0.7)"/>
      <use xlink:href="#DejaVuSans-Oblique-61" transform="translate(1229.150391 -16.390625) scale(0.7)"/>
      <use xlink:href="#DejaVuSans-Oblique-72" transform="translate(1272.045898 -16.390625) scale(0.7)"/>
      <use xlink:href="#DejaVuSans-Oblique-6b" transform="translate(1300.825195 -16.390625) scale(0.7)"/>
      <use xlink:href="#DejaVuSans-29" transform="translate(1344.09668 0.015625)"/>
     </g>
    </g>
   </g>
   <g id="matplotlib.axis_2">
    <g id="ytick_1">
     <g id="line2d_9">
      <path d="M 54.2 225.16 
L 349.2 225.16 
" clip-path="url(#pb4fe2d8ed6)" style="fill: none; stroke-dasharray: 2.96,1.28; stroke-dashoffset: 0; stroke: #b0b0b0; stroke-opacity: 0.5; stroke-width: 0.8"/>
     </g>
     <g id="line2d_10">
      <defs>
       <path id="mdad6b41243" d="M 0 0 
L -3.5 0 
" style="stroke: #000000; stroke-width: 0.8"/>
      </defs>
      <g>
       <use xlink:href="#mdad6b41243" x="54.2" y="225.16" style="stroke: #000000; stroke-width: 0.8"/>
      </g>
     </g>
     <g id="text_6">
      <!-- 0.00 -->
      <g transform="translate(24.934375 228.959219) scale(0.1 -0.1)">
       <use xlink:href="#DejaVuSans-30"/>
       <use xlink:href="#DejaVuSans-2e" transform="translate(63.623047 0)"/>
       <use xlink:href="#DejaVuSans-30" transform="translate(95.410156 0)"/>
       <use xlink:href="#DejaVuSans-30" transform="translate(159.033203 0)"/>
      </g>
     </g>
    </g>
    <g id="ytick_2">
     <g id="line2d_11">
      <path d="M 54.2 155.026667 
L 349.2 155.026667 
" clip-path="url(#pb4fe2d8ed6)" style="fill: none; stroke-dasharray: 2.96,1.28; stroke-dashoffset: 0; stroke: #b0b0b0; stroke-opacity: 0.5; stroke-width: 0.8"/>
     </g>
     <g id="line2d_12">
      <g>
       <use xlink:href="#mdad6b41243" x="54.2" y="155.026667" style="stroke: #000000; stroke-width: 0.8"/>
      </g>
     </g>
     <g id="text_7">
      <!-- 0.05 -->
      <g transform="translate(24.934375 158.825885) scale(0.1 -0.1)">
       <use xlink:href="#DejaVuSans-30"/>
       <use xlink:href="#DejaVuSans-2e" transform="translate(63.623047 0)"/>
       <use xlink:href="#DejaVuSans-30" transform="translate(95.410156 0)"/>
       <use xlink:href="#DejaVuSans-35" transform="translate(159.033203 0)"/>
      </g>
     </g>
    </g>
    <g id="ytick_3">
     <g id="line2d_13">
      <path d="M 54.2 84.893333 
L 349.2 84.893333 
" clip-path="url(#pb4fe2d8ed6)" style="fill: none; stroke-dasharray: 2.96,1.28; stroke-dashoffset: 0; stroke: #b0b0b0; stroke-opacity: 0.5; stroke-width: 0.8"/>
     </g>
     <g id="line2d_14">
      <g>
       <use xlink:href="#mdad6b41243" x="54.2" y="84.893333" style="stroke: #000000; stroke-width: 0.8"/>
      </g>
     </g>
     <g id="text_8">
      <!-- 0.10 -->
      <g transform="translate(24.934375 88.692552) scale(0.1 -0.1)">
       <use xlink:href="#DejaVuSans-30"/>
       <use xlink:href="#DejaVuSans-2e" transform="translate(63.623047 0)"/>
       <use xlink:href="#DejaVuSans-31" transform="translate(95.410156 0)"/>
       <use xlink:href="#DejaVuSans-30" transform="translate(159.033203 0)"/>
      </g>
     </g>
    </g>
    <g id="ytick_4">
     <g id="line2d_15">
      <path d="M 54.2 14.76 
L 349.2 14.76 
" clip-path="url(#pb4fe2d8ed6)" style="fill: none; stroke-dasharray: 2.96,1.28; stroke-dashoffset: 0; stroke: #b0b0b0; stroke-opacity: 0.5; stroke-width: 0.8"/>
     </g>
     <g id="line2d_16">
      <g>
       <use xlink:href="#mdad6b41243" x="54.2" y="14.76" style="stroke: #000000; stroke-width: 0.8"/>
      </g>
     </g>
     <g id="text_9">
      <!-- 0.15 -->
      <g transform="translate(24.934375 18.559219) scale(0.1 -0.1)">
       <use xlink:href="#DejaVuSans-30"/>
       <use xlink:href="#DejaVuSans-2e" transform="translate(63.623047 0)"/>
       <use xlink:href="#DejaVuSans-31" transform="translate(95.410156 0)"/>
       <use xlink:href="#DejaVuSans-35" transform="translate(159.033203 0)"/>
      </g>
     </g>
    </g>
    <g id="text_10">
     <!-- secret key rate (bits/signal) -->
     <g transform="translate(18.854688 188.5475) rotate(-90) scale(0.1 -0.1)">
      <defs>
       <path id="DejaVuSans-73" d="M 2834 3397 
L 2834 2853 
Q 2591 2978 2328 3040 
Q 2066 3103 1784 3103 
Q 1356 3103 1142 2972 
Q 928 2841 928 2578 
Q 928 2378 1081 2264 
Q 1234 2150 1697 2047 
L 1894 2003 
Q 2506 1872 2764 1633 
Q 3022 1394 3022 966 
Q 3022 478 2636 193 
Q 2250 -91 1575 -91 
Q 1294 -91 989 -36 
Q 684 19 347 128 
L 347 722 
Q 666 556 975 473 
Q 1284 391 1588 391 
Q 1994 391 2212 530 
Q 2431 669 2431 922 
Q 2431 1156 2273 1281 
Q 2116 1406 1581 1522 
L 1381 1569 
Q 847 1681 609 1914 
Q 372 2147 372 2553 
Q 372 3047 722 3315 
Q 1072 3584 1716 3584 
Q 2034 3584 2315 3537 
Q 2597 3491 2834 3397 
z
" transform="scale(0.015625)"/>
       <path id="DejaVuSans-79" d="M 2059 -325 
Q 1816 -950 1584 -1140 
Q 1353 -1331 966 -1331 
L 506 -1331 
L 506 -850 
L 844 -850 
Q 1081 -850 1212 -737 
Q 1344 -625 1503 -206 
L 1606 56 
L 191 3500 
L 800 3500 
L 1894 763 
L 2988 3500 
L 3597 3500 
L 2059 -325 
z
" transform="scale(0.015625)"/>
       <path id="DejaVuSans-62" d="M 3116 1747 
Q 3116 2381 2855 2742 
Q 2594 3103 2138 3103 
Q 1681 3103 1420 2742 
Q 1159 2381 1159 1747 
Q 1159 1113 1420 752 
Q 1681 391 2138 391 
Q 2594 391 2855 752 
Q 3116 1113 3116 1747 
z
M 1159 2969 
Q 1341 3281 1617 3432 
Q 1894 3584 2278 3584 
Q 2916 3584 3314 3078 
Q 3713 2572 3713 1747 
Q 3713 922 3314 415 
Q 2916 -91 2278 -91 
Q 1894 -91 1617 61 
Q 1341 213 1159 525 
L 1159 0 
L 581 0 
L 581 4863 
L 1159 4863 
L 1159 2969 
z
" transform="scale(0.015625)"/>
       <path id="DejaVuSans-69" d="M 603 3500 
L 1178 3500 
L 1178 0 
L 603 0 
L 603 3500 
z
M 603 4863 
L 1178 4863 
L 1178 4134 
L 603 4134 
L 603 4863 
z
" transform="scale(0.015625)"/>
       <path id="DejaVuSans-2f" d="M 1625 4666 
L 2156 4666 
L 531 -594 
L 0 -594 
L 1625 4666 
z
" transform="scale(0.015625)"/>
       <path id="DejaVuSans-67" d="M 2906 1791 
Q 2906 2416 2648 2759 
Q 2391 3103 1925 3103 
Q 1463 3103 1205 2759 
Q 947 2416 947 1791 
Q 947 1169 1205 825 
Q 1463 481 1925 481 
Q 2391 481 2648 825 
Q 2906 1169 2906 1791 
z
M 3481 434 
Q 3481 -459 3084 -895 
Q 2688 -1331 1869 -1331 
Q 1566 -1331 1297 -1286 
Q 1028 -1241 775 -1147 
L 775 -588 
Q 1028 -725 1275 -790 
Q 1522 -856 1778 -856 
Q 2344 -856 2625 -561 
Q 2906 -266 2906 331 
L 2906 616 
Q 2728 306 2450 153 
Q 2172 0 1784 0 
Q 1141 0 747 490 
Q 353 981 353 1791 
Q 353 2603 747 3093 
Q 1141 3584 1784 3584 
Q 2172 3584 2450 3431 
Q 2728 3278 2906 2969 
L 2906 3500 
L 3481 3500 
L 3481 434 
z
" transform="scale(0.015625)"/>
       <path id="DejaVuSans-6c" d="M 603 4863 
L 1178 4863 
L 1178 0 
L 603 0 
L 603 4863 
z
" transform="scale(0.015625)"/>
      </defs>
      <use xlink:href="#DejaVuSans-73"/>
      <use xlink:href="#DejaVuSans-65" transform="translate(52.099609 0)"/>
      <use xlink:href="#DejaVuSans-63" transform="translate(113.623047 0)"/>
      <use xlink:href="#DejaVuSans-72" transform="translate(168.603516 0)"/>
      <use xlink:href="#DejaVuSans-65" transform="translate(207.466797 0)"/>
      <use xlink:href="#DejaVuSans-74" transform="translate(268.990234 0)"/>
      <use xlink:href="#DejaVuSans-20" transform="translate(308.199219 0)"/>
      <use xlink:href="#DejaVuSans-6b" transform="translate(339.986328 0)"/>
      <use xlink:href="#DejaVuSans-65" transform="translate(394.271484 0)"/>
      <use xlink:href="#DejaVuSans-79" transform="translate(455.794922 0)"/>
      <use xlink:href="#DejaVuSans-20" transform="translate(514.974609 0)"/>
      <use xlink:href="#DejaVuSans-72" transform="translate(546.761719 0)"/>
      <use xlink:href="#DejaVuSans-61" transform="translate(587.875 0)"/>
      <use xlink:href="#DejaVuSans-74" transform="translate(649.154297 0)"/>
      <use xlink:href="#DejaVuSans-65" transform="translate(688.363281 0)"/>
      <use xlink:href="#DejaVuSans-20" transform="translate(749.886719 0)"/>
      <use xlink:href="#DejaVuSans-28" transform="translate(781.673828 0)"/>
      <use xlink:href="#DejaVuSans-62" transform="translate(820.6875 0)"/>
      <use xlink:href="#DejaVuSans-69" transform="translate(884.164062 0)"/>
      <use xlink:href="#DejaVuSans-74" transform="translate(911.947266 0)"/>
      <use xlink:href="#DejaVuSans-73" transform="translate(951.15625 0)"/>
      <use xlink:href="#DejaVuSans-2f" transform="translate(1003.255859 0)"/>
      <use xlink:href="#DejaVuSans-73" transform="translate(1036.947266 0)"/>
      <use xlink:href="#DejaVuSans-69" transform="translate(1089.046875 0)"/>
      <use xlink:href="#DejaVuSans-67" transform="translate(1116.830078 0)"/>
      <use xlink:href="#DejaVuSans-6e" transform="translate(1180.306641 0)"/>
      <use xlink:href="#DejaVuSans-61" transform="translate(1243.685547 0)"/>
      <use xlink:href="#DejaVuSans-6c" transform="translate(1304.964844 0)"/>
      <use xlink:href="#DejaVuSans-29" transform="translate(1332.748047 0)"/>
     </g>
    </g>
   </g>
   <g id="line2d_17">
    <path d="M 67.609091 90.791388 
L 97.407071 93.479274 
L 127.205051 115.962997 
L 157.00303 120.836385 
L 186.80101 130.366856 
L 216.59899 139.63969 
L 246.39697 142.30717 
L 276.194949 166.019508 
L 305.992929 178.141395 
L 335.790909 178.42524 
" clip-path="url(#pb4fe2d8ed6)" style="fill: none; stroke: #ff8c00; stroke-width: 1.5; stroke-linecap: square"/>
    <defs>
     <path id="mcfa3336a34" d="M -2 2 
L 2 -2 
M -2 -2 
L 2 2 
" style="stroke: #ff8c00"/>
    </defs>
    <g clip-path="url(#pb4fe2d8ed6)">
     <use xlink:href="#mcfa3336a34" x="67.609091" y="90.791388" style="fill: #ff8c00; stroke: #ff8c00"/>
     <use xlink:href="#mcfa3336a34" x="97.407071" y="93.479274" style="fill: #ff8c00; stroke: #ff8c00"/>
     <use xlink:href="#mcfa3336a34" x="127.205051" y="115.962997" style="fill: #ff8c00; stroke: #ff8c00"/>
     <use xlink:href="#mcfa3336a34" x="157.00303" y="120.836385" style="fill: #ff8c00; stroke: #ff8c00"/>
     <use xlink:href="#mcfa3336a34" x="186.80101" y="130.366856" style="fill: #ff8c00; stroke: #ff8c00"/>
     <use xlink:href="#mcfa3336a34" x="216.59899" y="139.63969" style="fill: #ff8c00; stroke: #ff8c00"/>
     <use xlink:href="#mcfa3336a34" x="246.39697" y="142.30717" style="fill: #ff8c00; stroke: #ff8c00"/>
     <use xlink:href="#mcfa3336a34" x="276.194949" y="166.019508" style="fill: #ff8c00; stroke: #ff8c00"/>
     <use xlink:href="#mcfa3336a34" x="305.992929" y="178.141395" style="fill: #ff8c00; stroke: #ff8c00"/>
     <use xlink:href="#mcfa3336a34" x="335.790909" y="178.42524" style="fill: #ff8c00; stroke: #ff8c00"/>
    </g>
   </g>
   <g id="line2d_18">
    <path d="M 67.609091 78.168515 
L 97.407071 103.308016 
L 127.205051 105.654015 
L 157.00303 121.546807 
L 186.80101 137.553519 
L 216.59899 155.908884 
L 246.39697 159.727885 
L 276.194949 162.655718 
L 305.992929 176.756544 
L 335.790909 191.969574 
" clip-path="url(#pb4fe2d8ed6)" style="fill: none; stroke: #f0e68c; stroke-width: 1.5; stroke-linecap: square"/>
    <defs>
     <path id="maffa804343" d="M 0 2 
C 0.530406 2 1.03916 1.789267 1.414214 1.414214 
C 1.789267 1.03916 2 0.530406 2 0 
C 2 -0.530406 1.789267 -1.03916 1.414214 -1.414214 
C 1.03916 -1.789267 0.530406 -2 0 -2 
C -0.530406 -2 -1.03916 -1.789267 -1.414214 -1.414214 
C -1.789267 -1.03916 -2 -0.530406 -2 0 
C -2 0.530406 -1.789267 1.03916 -1.414214 1.414214 
C -1.03916 1.789267 -0.530406 2 0 2 
z
" style="stroke: #f0e68c"/>
    </defs>
    <g clip-path="url(#pb4fe2d8ed6)">
     <use xlink:href="#maffa804343" x="67.609091" y="78.168515" style="fill: #f0e68c; stroke: #f0e68c"/>
     <use xlink:href="#maffa804343" x="97.407071" y="103.308016" style="fill: #f0e68c; stroke: #f0e68c"/>
     <use xlink:href="#maffa804343" x="127.205051" y="105.654015" style="fill: #f0e68c; stroke: #f0e68c"/>
     <use xlink:href="#maffa804343" x="157.00303" y="121.546807" style="fill: #f0e68c; stroke: #f0e68c"/>
     <use xlink:href="#maffa804343" x="186.80101" y="137.553519" style="fill: #f0e68c; stroke: #f0e68c"/>
     <use xlink:href="#maffa804343" x="216.59899" y="155.908884" style="fill: #f0e68c; stroke: #f0e68c"/>
     <use xlink:href="#maffa804343" x="246.39697" y="159.727885" style="fill: #f0e68c; stroke: #f0e68c"/>
     <use xlink:href="#maffa804343" x="276.194949" y="162.655718" style="fill: #f0e68c; stroke: #f0e68c"/>
     <use xlink:href="#maffa804343" x="305.992929" y="176.756544" style="fill: #f0e68c; stroke: #f0e68c"/>
     <use xlink:href="#maffa804343" x="335.790909" y="191.969574" style="fill: #f0e68c; stroke: #f0e68c"/>
    </g>
   </g>
   <g id="line2d_19">
    <path d="M 67.609091 120.358357 
L 97.407071 141.01911 
L 127.205051 147.672764 
L 157.00303 163.568186 
L 186.80101 170.159168 
L 216.59899 176.860747 
L 246.39697 182.846297 
L 276.194949 190.326167 
L 305.992929 193.526401 
L 335.790909 204.98712 
" clip-path="url(#pb4fe2d8ed6)" style="fill: none; stroke: #228b22; stroke-width: 1.5; stroke-linecap: square"/>
    <defs>
     <path id="m2485864573" d="M 0 -2 
L -2 2 
L 2 2 
z
" style="stroke: #228b22; stroke-linejoin: miter"/>
    </defs>
    <g clip-path="url(#pb4fe2d8ed6)">
     <use xlink:href="#m2485864573" x="67.609091" y="120.358357" style="fill: #228b22; stroke: #228b22; stroke-linejoin: miter"/>
     <use xlink:href="#m2485864573" x="97.407071" y="141.01911" style="fill: #228b22; stroke: #228b22; stroke-linejoin: miter"/>
     <use xlink:href="#m2485864573" x="127.205051" y="147.672764" style="fill: #228b22; stroke: #228b22; stroke-linejoin: miter"/>
     <use xlink:href="#m2485864573" x="157.00303" y="163.568186" style="fill: #228b22; stroke: #228b22; stroke-linejoin: miter"/>
     <use xlink:href="#m2485864573" x="186.80101" y="170.159168" style="fill: #228b22; stroke: #228b22; stroke-linejoin: miter"/>
     <use xlink:href="#m2485864573" x="216.59899" y="176.860747" style="fill: #228b22; stroke: #228b22; stroke-linejoin: miter"/>
     <use xlink:href="#m2485864573" x="246.39697" y="182.846297" style="fill: #228b22; stroke: #228b22; stroke-linejoin: miter"/>
     <use xlink:href="#m2485864573" x="276.194949" y="190.326167" style="fill: #228b22; stroke: #228b22; stroke-linejoin: miter"/>
     <use xlink:href="#m2485864573" x="305.992929" y="193.526401" style="fill: #228b22; stroke: #228b22; stroke-linejoin: miter"/>
     <use xlink:href="#m2485864573" x="335.790909" y="204.98712" style="fill: #228b22; stroke: #228b22; stroke-linejoin: miter"/>
    </g>
   </g>
   <g id="line2d_20">
    <path d="M 67.609091 158.69641 
L 97.407071 161.141805 
L 127.205051 166.560877 
L 157.00303 177.711659 
L 186.80101 185.149466 
L 216.59899 188.352059 
L 246.39697 188.840631 
L 276.194949 203.448088 
L 305.992929 211.541699 
L 335.790909 212.327722 
" clip-path="url(#pb4fe2d8ed6)" style="fill: none; stroke: #4169e1; stroke-width: 1.5; stroke-linecap: square"/>
    <defs>
     <path id="m5e3f52379c" d="M -0.666667 2 
L 0.666667 2 
L 0.666667 0.666667 
L 2 0.666667 
L 2 -0.666667 
L 0.666667 -0.666667 
L 0.666667 -2 
L -0.666667 -2 
L -0.666667 -0.666667 
L -2 -0.666667 
L -2 0.666667 
L -0.666667 0.666667 
z
" style="stroke: #4169e1; stroke-linejoin: miter"/>
    </defs>
    <g clip-path="url(#pb4fe2d8ed6)">
     <use xlink:href="#m5e3f52379c" x="67.609091" y="158.69641" style="fill: #4169e1; stroke: #4169e1; stroke-linejoin: miter"/>
     <use xlink:href="#m5e3f52379c" x="97.407071" y="161.141805" style="fill: #4169e1; stroke: #4169e1; stroke-linejoin: miter"/>
     <use xlink:href="#m5e3f52379c" x="127.205051" y="166.560877" style="fill: #4169e1; stroke: #4169e1; stroke-linejoin: miter"/>
     <use xlink:href="#m5e3f52379c" x="157.00303" y="177.711659" style="fill: #4169e1; stroke: #4169e1; stroke-linejoin: miter"/>
     <use xlink:href="#m5e3f52379c" x="186.80101" y="185.149466" style="fill: #4169e1; stroke: #4169e1; stroke-linejoin: miter"/>
     <use xlink:href="#m5e3f52379c" x="216.59899" y="188.352059" style="fill: #4169e1; stroke: #4169e1; stroke-linejoin: miter"/>
     <use xlink:href="#m5e3f52379c" x="246.39697" y="188.840631" style="fill: #4169e1; stroke: #4169e1; stroke-linejoin: miter"/>
     <use xlink:href="#m5e3f52379c" x="276.194949" y="203.448088" style="fill: #4169e1; stroke: #4169e1; stroke-linejoin: miter"/>
     <use xlink:href="#m5e3f52379c" x="305.992929" y="211.541699" style="fill: #4169e1; stroke: #4169e1; stroke-linejoin: miter"/>
     <use xlink:href="#m5e3f52379c" x="335.790909" y="212.327722" style="fill: #4169e1; stroke: #4169e1; stroke-linejoin: miter"/>
    </g>
   </g>
   <g id="patch_3">
    <path d="M 54.2 225.16 
L 54.2 14.76 
" style="fill: none; stroke: #000000; stroke-width: 0.8; stroke-linejoin: miter; stroke-linecap: square"/>
   </g>
   <g id="patch_4">
    <path d="M 349.2 225.16 
L 349.2 14.76 
" style="fill: none; stroke: #000000; stroke-width: 0.8; stroke-linejoin: miter; stroke-linecap: square"/>
   </g>
   <g id="patch_5">
    <path d="M 54.2 225.16 
L 349.2 225.16 
" style="fill: none; stroke: #000000; stroke-width: 0.8; stroke-linejoin: miter; stroke-linecap: square"/>
   </g>
   <g id="patch_6">
    <path d="M 54.2 14.76 
L 349.2 14.76 
" style="fill: none; stroke: #000000; stroke-width: 0.8; stroke-linejoin: miter; stroke-linecap: square"/>
   </g>
   <g id="legend_1">
    <g id="patch_7">
     <path d="M 267.704687 81.4725 
L 342.2 81.4725 
Q 344.2 81.4725 344.2 79.4725 
L 344.2 21.76 
Q 344.2 19.76 342.2 19.76 
L 267.704687 19.76 
Q 265.704687 19.76 265.704687 21.76 
L 265.704687 79.4725 
Q 265.704687 81.4725 267.704687 81.4725 
z
" style="fill: #ffffff; opacity: 0.8; stroke: #cccccc; stroke-linejoin: miter"/>
    </g>
    <g id="line2d_21">
     <path d="M 269.704687 27.858437 
L 279.704687 27.858437 
L 289.704687 27.858437 
" style="fill: none; stroke: #ff8c00; stroke-width: 1.5; stroke-linecap: square"/>
     <g>
      <use xlink:href="#mcfa3336a34" x="279.704687" y="27.858437" style="fill: #ff8c00; stroke: #ff8c00"/>
     </g>
    </g>
    <g id="text_11">
     <!-- 3 angles -->
     <g transform="translate(297.704687 31.358437) scale(0.1 -0.1)">
      <defs>
       <path id="DejaVuSans-33" d="M 2597 2516 
Q 3050 2419 3304 2112 
Q 3559 1806 3559 1356 
Q 3559 666 3084 287 
Q 2609 -91 1734 -91 
Q 1441 -91 1130 -33 
Q 819 25 488 141 
L 488 750 
Q 750 597 1062 519 
Q 1375 441 1716 441 
Q 2309 441 2620 675 
Q 2931 909 2931 1356 
Q 2931 1769 2642 2001 
Q 2353 2234 1838 2234 
L 1294 2234 
L 1294 2753 
L 1863 2753 
Q 2328 2753 2575 2939 
Q 2822 3125 2822 3475 
Q 2822 3834 2567 4026 
Q 2313 4219 1838 4219 
Q 1578 4219 1281 4162 
Q 984 4106 628 3988 
L 628 4550 
Q 988 4650 1302 4700 
Q 1616 4750 1894 4750 
Q 2613 4750 3031 4423 
Q 3450 4097 3450 3541 
Q 3450 3153 3228 2886 
Q 3006 2619 2597 2516 
z
" transform="scale(0.015625)"/>
      </defs>
      <use xlink:href="#DejaVuSans-33"/>
      <use xlink:href="#DejaVuSans-20" transform="translate(63.623047 0)"/>
      <use xlink:href="#DejaVuSans-61" transform="translate(95.410156 0)"/>
      <use xlink:href="#DejaVuSans-6e" transform="translate(156.689453 0)"/>
      <use xlink:href="#DejaVuSans-67" transform="translate(220.068359 0)"/>
      <use xlink:href="#DejaVuSans-6c" transform="translate(283.544922 0)"/>
      <use xlink:href="#DejaVuSans-65" transform="translate(311.328125 0)"/>
      <use xlink:href="#DejaVuSans-73" transform="translate(372.851562 0)"/>
     </g>
    </g>
    <g id="line2d_22">
     <path d="M 269.704687 42.536562 
L 279.704687 42.536562 
L 289.704687 42.536562 
" style="fill: none; stroke: #f0e68c; stroke-width: 1.5; stroke-linecap: square"/>
     <g>
      <use xlink:href="#maffa804343" x="279.704687" y="42.536562" style="fill: #f0e68c; stroke: #f0e68c"/>
     </g>
    </g>
    <g id="text_12">
     <!-- 4 angles -->
     <g transform="translate(297.704687 46.036562) scale(0.1 -0.1)">
      <defs>
       <path id="DejaVuSans-34" d="M 2419 4116 
L 825 1625 
L 2419 1625 
L 2419 4116 
z
M 2253 4666 
L 3047 4666 
L 3047 1625 
L 3713 1625 
L 3713 1100 
L 3047 1100 
L 3047 0 
L 2419 0 
L 2419 1100 
L 313 1100 
L 313 1709 
L 2253 4666 
z
" transform="scale(0.015625)"/>
      </defs>
      <use xlink:href="#DejaVuSans-34"/>
      <use xlink:href="#DejaVuSans-20" transform="translate(63.623047 0)"/>
      <use xlink:href="#DejaVuSans-61" transform="translate(95.410156 0)"/>
      <use xlink:href="#DejaVuSans-6e" transform="translate(156.689453 0)"/>
      <use xlink:href="#DejaVuSans-67" transform="translate(220.068359 0)"/>
      <use xlink:href="#DejaVuSans-6c" transform="translate(283.544922 0)"/>
      <use xlink:href="#DejaVuSans-65" transform="translate(311.328125 0)"/>
      <use xlink:href="#DejaVuSans-73" transform="translate(372.851562 0)"/>
     </g>
    </g>
    <g id="line2d_23">
     <path d="M 269.704687 57.214687 
L 279.704687 57.214687 
L 289.704687 57.214687 
" style="fill: none; stroke: #228b22; stroke-width: 1.5; stroke-linecap: square"/>
     <g>
      <use xlink:href="#m2485864573" x="279.704687" y="57.214687" style="fill: #228b22; stroke: #228b22; stroke-linejoin: miter"/>
     </g>
    </g>
    <g id="text_13">
     <!-- 5 angles -->
     <g transform="translate(297.704687 60.714687) scale(0.1 -0.1)">
      <use xlink:href="#DejaVuSans-35"/>
      <use xlink:href="#DejaVuSans-20" transform="translate(63.623047 0)"/>
      <use xlink:href="#DejaVuSans-61" transform="translate(95.410156 0)"/>
      <use xlink:href="#DejaVuSans-6e" transform="translate(156.689453 0)"/>
      <use xlink:href="#DejaVuSans-67" transform="translate(220.068359 0)"/>
      <use xlink:href="#DejaVuSans-6c" transform="translate(283.544922 0)"/>
      <use xlink:href="#DejaVuSans-65" transform="translate(311.328125 0)"/>
      <use xlink:href="#DejaVuSans-73" transform="translate(372.851562 0)"/>
     </g>
    </g>
    <g id="line2d_24">
     <path d="M 269.704687 71.892812 
L 279.704687 71.892812 
L 289.704687 71.892812 
" style="fill: none; stroke: #4169e1; stroke-width: 1.5; stroke-linecap: square"/>
     <g>
      <use xlink:href="#m5e3f52379c" x="279.704687" y="71.892812" style="fill: #4169e1; stroke: #4169e1; stroke-linejoin: miter"/>
     </g>
    </g>
    <g id="text_14">
     <!-- 6 angles -->
     <g transform="translate(297.704687 75.392812) scale(0.1 -0.1)">
      <defs>
       <path id="DejaVuSans-36" d="M 2113 2584 
Q 1688 2584 1439 2293 
Q 1191 2003 1191 1497 
Q 1191 994 1439 701 
Q 1688 409 2113 409 
Q 2538 409 2786 701 
Q 3034 994 3034 1497 
Q 3034 2003 2786 2293 
Q 2538 2584 2113 2584 
z
M 3366 4563 
L 3366 3988 
Q 3128 4100 2886 4159 
Q 2644 4219 2406 4219 
Q 1781 4219 1451 3797 
Q 1122 3375 1075 2522 
Q 1259 2794 1537 2939 
Q 1816 3084 2150 3084 
Q 2853 3084 3261 2657 
Q 3669 2231 3669 1497 
Q 3669 778 3244 343 
Q 2819 -91 2113 -91 
Q 1303 -91 875 529 
Q 447 1150 447 2328 
Q 447 3434 972 4092 
Q 1497 4750 2381 4750 
Q 2619 4750 2861 4703 
Q 3103 4656 3366 4563 
z
" transform="scale(0.015625)"/>
      </defs>
      <use xlink:href="#DejaVuSans-36"/>
      <use xlink:href="#DejaVuSans-20" transform="translate(63.623047 0)"/>
      <use xlink:href="#DejaVuSans-61" transform="translate(95.410156 0)"/>
      <use xlink:href="#DejaVuSans-6e" transform="translate(156.689453 0)"/>
      <use xlink:href="#DejaVuSans-67" transform="translate(220.068359 0)"/>
      <use xlink:href="#DejaVuSans-6c" transform="translate(283.544922 0)"/>
      <use xlink:href="#DejaVuSans-65" transform="translate(311.328125 0)"/>
      <use xlink:href="#DejaVuSans-73" transform="translate(372.851562 0)"/>
     </g>
    </g>
   </g>
  </g>
 </g>
 <defs>
  <clipPath id="pb4fe2d8ed6">
   <rect x="54.2" y="14.76" width="295" height="210.4"/>
  </clipPath>
 </defs>
</svg>
